<svg width="61" height="48" viewBox="0 0 61 48" fill="none" xmlns="http://www.w3.org/2000/svg">
<g clip-path="url(#clip0)" filter="url(#filter0_d)">
<path d="M57.9452 32.7124L12.4793 43.5385C11.3576 43.8055 10.2149 43.0994 9.94079 41.9484L3.49449 14.8761C3.22044 13.7252 3.92228 12.5798 5.04397 12.3127L50.485 1.49259C51.6066 1.2255 52.7494 1.93166 53.0234 3.08261L59.4757 30.1799C59.7687 31.2999 59.0669 32.4453 57.9452 32.7124Z" fill="white"/>
<path d="M12.0192 29.1064C11.9373 29.2052 11.7878 29.2408 11.6583 29.1394L10.5546 28.2653C10.456 28.1831 10.4202 28.0329 10.521 27.9032C10.6029 27.8044 10.7524 27.7688 10.8819 27.8701L11.9856 28.7442C12.0902 28.8515 12.1259 29.0016 12.0192 29.1064Z" fill="#97C230"/>
<path d="M10.2534 27.3325C10.1976 27.3193 10.1608 27.2752 10.1738 27.2192C10.1868 27.1633 10.2307 27.1264 10.2865 27.1395C10.3423 27.1527 10.3792 27.1968 10.3662 27.2528C10.3531 27.3087 10.3093 27.3456 10.2534 27.3325ZM10.0264 27.0428C10.0075 27.0738 9.98253 27.0797 9.93268 27.0916C9.90776 27.0975 9.9018 27.0725 9.87687 27.0784L9.13079 26.4894C9.09394 26.4452 9.08203 26.3952 9.11997 26.3333C9.16386 26.2964 9.21371 26.2845 9.27548 26.3227L10.0216 26.9118C10.0525 26.9309 10.0703 27.0059 10.0264 27.0428ZM11.1557 27.2498L9.56488 25.9894C9.43538 25.888 9.28692 25.8176 9.12544 25.8032C8.82742 25.7684 8.48441 25.8765 8.28281 26.136C7.9804 26.5253 8.03669 27.0936 8.43113 27.4227L10.0219 28.6831C10.1514 28.7845 10.301 28.7489 10.4077 28.6441L10.6473 28.3227L10.9497 27.9334L11.1952 27.637C11.271 27.5132 11.2602 27.3571 11.1557 27.2498Z" fill="#E52415"/>
<path d="M33.5711 7.45006C33.7044 7.78848 33.5266 8.14808 33.2145 8.27528C32.8775 8.40841 32.5188 8.22943 32.3915 7.91603C32.2582 7.57762 32.436 7.21802 32.7481 7.09081C33.0792 6.93266 33.4628 7.1057 33.5711 7.45006Z" fill="#0B9032"/>
<path d="M49.2656 22.0354C49.2316 21.1181 47.839 21.1325 47.879 22.0747C47.9022 22.8359 49.3348 23.7639 49.3348 23.7639C49.3348 23.7639 50.6755 22.7573 50.6463 21.971C50.6063 21.0287 49.2316 21.1181 49.2656 22.0354Z" fill="#97C230"/>
<path d="M46.0918 17.5561C46.3318 17.7898 46.5707 18.1295 46.5983 18.4666C46.3665 18.046 45.9731 17.6108 45.4578 17.5485C45.402 17.5353 45.2654 17.5149 45.2215 17.5518C45.1218 17.5756 45.1018 17.7125 45.2134 17.7388C45.2692 17.752 45.3191 17.7401 45.3689 17.7283C45.4995 17.7236 45.642 17.769 45.7845 17.8144C45.4371 18.3466 45.8543 18.8818 46.3495 19.0811C46.9374 19.3377 47.3319 19.6668 47.6055 20.2627C47.9182 19.4743 47.7785 18.5558 47.2318 17.9192C46.8694 17.5032 46.4418 17.367 46.0918 17.5561Z" fill="#0B9032"/>
<path d="M48.733 11.6129C49.1843 11.8492 49.6167 12.1164 49.9862 12.4514C50.0848 12.5337 50.0897 12.6647 50.0019 12.7385L49.7315 13.0408C49.356 12.6808 48.9485 12.4077 48.4723 12.1773C47.9342 11.9089 47.3702 11.7524 46.805 11.7019L46.8403 11.2969C46.8414 11.1909 46.9541 11.1111 47.0597 11.1124C47.6249 11.1629 48.1949 11.3445 48.733 11.6129Z" fill="#0B9032"/>
<path d="M48.7572 13.4844C48.7192 13.5463 48.6504 13.5892 48.5946 13.576C48.5328 13.5378 48.5149 13.4628 48.5529 13.4009C48.5849 13.3139 48.6596 13.2961 48.7155 13.3093C48.7772 13.3474 48.7951 13.4225 48.7572 13.4844ZM48.0029 13.0823C47.965 13.1443 47.8962 13.1871 47.8404 13.1739C47.7786 13.1358 47.7607 13.0607 47.7987 12.9988C47.8366 12.9369 47.9054 12.8941 47.9612 12.9072C48.042 12.9144 48.0349 12.9954 48.0029 13.0823ZM48.018 14.0306C47.9801 14.0925 47.9112 14.1353 47.8554 14.1222C47.7937 14.084 47.7758 14.0089 47.8137 13.947C47.8457 13.8601 47.9205 13.8423 47.9763 13.8554C48.0321 13.8686 48.05 13.9436 48.018 14.0306ZM47.2108 12.7422C47.1728 12.8041 47.104 12.8469 47.0482 12.8338C46.9864 12.7956 46.9685 12.7205 47.0065 12.6586C47.0385 12.5717 47.1132 12.5539 47.1691 12.567C47.2249 12.5802 47.2427 12.6553 47.2108 12.7422ZM47.2697 13.6535C47.2377 13.7405 47.163 13.7583 47.1072 13.7451C47.0454 13.7069 47.0275 13.6319 47.0654 13.57C47.1034 13.5081 47.1722 13.4652 47.228 13.4784C47.2838 13.4915 47.3017 13.5666 47.2697 13.6535ZM47.2788 14.5767C47.2409 14.6386 47.1721 14.6815 47.1163 14.6683C47.0545 14.6301 47.0366 14.5551 47.0746 14.4932C47.1125 14.4313 47.1813 14.3884 47.2371 14.4016C47.2989 14.4398 47.3168 14.5148 47.2788 14.5767ZM48.3395 12.3941C47.8323 12.1447 47.2992 12.0073 46.7589 11.9508L46.2838 15.8183C46.2627 16.0613 46.5347 16.2081 46.7043 16.0355L49.4871 13.2313C49.1674 12.8844 48.7849 12.6053 48.3395 12.3941Z" fill="#E52415"/>
<path d="M56.0579 23.4586C56.0698 23.5086 55.9072 23.6002 55.8942 23.6562C55.8812 23.7122 56.0665 23.8267 56.0285 23.8886C56.0155 23.9446 55.8172 23.886 55.7733 23.9229C55.7294 23.9598 55.7771 24.16 55.7272 24.1718C55.6774 24.1837 55.5858 24.0204 55.53 24.0073C55.4742 23.9941 55.3604 24.1799 55.2986 24.1417C55.2428 24.1286 55.3008 23.9297 55.264 23.8856C55.2271 23.8415 55.0277 23.8889 55.0158 23.8389C55.0039 23.7889 55.1664 23.6973 55.1795 23.6413C55.1925 23.5853 55.0072 23.4708 55.0451 23.4089C55.0581 23.3529 55.2564 23.4115 55.3003 23.3746C55.3442 23.3377 55.2966 23.1375 55.3464 23.1256C55.3963 23.1138 55.4878 23.277 55.5436 23.2902C55.5994 23.3033 55.7133 23.1176 55.775 23.1558C55.8308 23.1689 55.7728 23.3678 55.8097 23.4119C55.8465 23.456 56.0459 23.4085 56.0579 23.4586Z" fill="#E52415"/>
<path d="M55.4022 24.355L55.3696 25.1031L54.4625 25.0547L54.4918 24.6247C54.5059 24.4627 54.6566 24.321 54.818 24.3355L55.4022 24.355Z" fill="#97C230"/>
<path d="M54.4602 25.2668L55.3672 25.3152L55.3314 26.3813L54.7472 26.3617C54.5858 26.3473 54.4443 26.1959 54.4584 26.0339L54.4602 25.2668Z" fill="#97C230"/>
<path d="M56.4799 25.341L56.4473 26.0891C56.4331 26.2511 56.2825 26.3927 56.121 26.3783L55.5369 26.3587L55.5728 25.2926L56.4799 25.341Z" fill="#97C230"/>
<path d="M56.488 25.1541L55.5809 25.1057L55.6135 24.3577L56.1976 24.3772C56.3591 24.3916 56.5005 24.543 56.4864 24.705L56.488 25.1541Z" fill="#97C230"/>
<path d="M41.7933 8.24196C41.7434 8.25383 41.6876 8.24068 41.6757 8.19064C41.6459 8.06553 41.5912 7.94637 41.5365 7.8272C41.5246 7.77716 41.5376 7.72118 41.5875 7.70931C41.6373 7.69744 41.6931 7.71059 41.705 7.76063C41.7597 7.8798 41.8145 7.99897 41.8502 8.14909C41.8562 8.17411 41.8432 8.23009 41.7933 8.24196ZM41.2309 7.31829C40.6307 6.45654 39.8683 6.24148 39.8683 6.24148C39.8125 6.22833 39.8005 6.17829 39.8136 6.12232C39.8266 6.06634 39.8764 6.05447 39.9322 6.06762C39.9631 6.0867 40.7754 6.28989 41.3876 7.20168C41.4244 7.24579 41.4114 7.30176 41.3675 7.33866L41.3426 7.34459C41.2927 7.35646 41.2618 7.33738 41.2309 7.31829ZM40.9569 6.16734C39.416 4.89503 37.6705 5.97163 37.4656 6.5492C37.3756 6.83502 36.9828 6.95501 36.7335 7.01436C36.6836 7.02623 36.6706 7.08221 36.7075 7.12631C36.7384 7.1454 36.7752 7.1895 36.8061 7.20859C36.8798 7.2968 36.9854 7.29808 37.0792 7.24932C37.4672 6.99829 37.7224 6.96396 37.7224 6.96396C40.3955 6.3539 41.3098 9.30889 41.5243 10.2096C41.5601 10.3598 41.6896 10.4611 41.8451 10.4505C41.9757 10.4459 42.1133 10.3602 42.1583 10.2173C42.3572 9.61471 42.8614 7.74968 40.9569 6.16734Z" fill="#97C230"/>
<path d="M42.1619 30.9183C42.2107 31.0125 42.1039 31.1172 42.1028 31.2232C42.1017 31.3292 42.1814 31.4425 42.1494 31.5294C42.1174 31.6163 41.9619 31.6269 41.899 31.6948C41.8362 31.7626 41.8161 31.8996 41.7223 31.9483C41.6286 31.9971 41.524 31.8898 41.4184 31.8885C41.3127 31.8873 41.2 31.967 41.1133 31.9347C41.0266 31.9025 41.0158 31.7464 40.948 31.6833C40.8803 31.6201 40.7438 31.5997 40.695 31.5055C40.6462 31.4114 40.753 31.3067 40.7541 31.2006C40.7552 31.0946 40.6756 30.9814 40.7075 30.8945C40.7395 30.8075 40.895 30.7969 40.9579 30.7291C41.0208 30.6612 41.0408 30.5243 41.1346 30.4755C41.2283 30.4267 41.3329 30.534 41.4386 30.5353C41.5442 30.5366 41.6569 30.4569 41.7436 30.4891C41.8303 30.5214 41.8412 30.6774 41.9089 30.7406C41.9826 30.8288 42.144 30.8432 42.1619 30.9183Z" fill="#97C230"/>
<path d="M47.6877 3.9037C47.6877 3.9037 47.5743 4.64455 47.7872 5.0962C47.836 5.19034 47.7233 5.27006 47.6555 5.20687C47.4952 5.08642 47.3061 4.73485 47.2357 4.32859C47.2178 4.25353 47.2249 4.17253 47.207 4.09747C47.22 4.04149 47.1523 3.9783 47.0835 4.02113C46.9838 4.04487 46.89 4.09363 46.7773 4.17335C46.2647 4.45405 46.3924 5.32256 46.5994 5.74919C46.6481 5.84333 46.5354 5.92305 46.4677 5.85986C46.3073 5.73941 46.0933 5.39378 46.0479 4.98158C46.03 4.90652 46.037 4.82552 46.0192 4.75046C46.0322 4.69448 45.9644 4.63129 45.8956 4.67412C45.7959 4.69786 45.6772 4.75256 45.5396 4.83821C45.0519 5.11298 45.2106 6.00057 45.3866 6.40811C45.4354 6.50226 45.3227 6.58198 45.2549 6.51879C45.0637 6.37926 44.8188 6.01454 44.7923 5.57138C44.7744 5.49632 44.6877 5.46408 44.6438 5.50098C43.8656 6.21506 43.5339 7.03434 43.7598 7.43002C44.0952 8.06403 45.7701 7.7974 47.5204 6.85183C49.2458 5.91221 50.3904 4.63498 50.061 4.02599C49.7793 3.61717 48.7107 3.55433 47.6877 3.9037Z" fill="#97C230"/>
<path d="M23.5948 27.8307C23.5661 27.5996 23.3688 27.435 23.1385 27.4634C23.1136 27.4694 23.0887 27.4753 23.0388 27.4872C22.9722 27.318 22.7869 27.2035 22.6065 27.22C22.426 27.2365 22.2754 27.3781 22.2363 27.5461C22.2114 27.552 22.1805 27.5329 22.1556 27.5389C21.9253 27.5673 21.7616 27.7649 21.7654 28.0019C21.5969 28.0685 21.4831 28.2542 21.4998 28.4353C21.5285 28.6664 21.7317 28.856 21.962 28.8276C22.3597 28.8387 22.493 29.1771 22.5466 29.4023C22.5704 29.5023 22.6691 29.5846 22.7688 29.5609L22.8435 29.5431L22.9183 29.5253C23.024 29.5265 23.1058 29.4277 23.1069 29.3217C23.1031 29.0847 23.1753 28.7238 23.5741 28.6288C23.8044 28.6004 23.993 28.3969 23.9643 28.1658C23.9285 28.0156 23.7871 27.8642 23.5948 27.8307Z" fill="#0B9032"/>
<path d="M14.6545 15.285L14.6309 15.1857L14.7228 15.2425C14.704 15.2732 14.6793 15.2791 14.6545 15.285Z" fill="white"/>
<path d="M38.4368 20.2514C38.0027 20.7513 37.6672 21.3336 38.1792 21.714C38.6295 22.0563 38.9731 21.287 38.8545 21.3417C38.7358 21.3964 38.6312 21.2891 38.6513 21.1521C38.6713 21.0152 38.8518 20.9986 39.0181 21.1441C39.4185 21.4982 39.16 21.8506 39.3394 21.9401C39.4878 22.0105 40.2991 21.1035 40.2135 20.9652C40.091 20.7829 39.7957 21.0911 39.3953 20.737C39.2598 20.6106 39.2431 20.4296 39.3617 20.3749C39.4804 20.3202 39.5909 20.4525 39.5649 20.5644C39.5199 20.7073 40.258 20.2672 39.8706 19.8571C39.4095 19.3588 38.8709 19.7514 38.4368 20.2514Z" fill="#0B9032"/>
<path d="M54.9504 21.1312C55.016 21.4064 54.8453 21.685 54.5711 21.7503C54.2969 21.8156 54.0189 21.6438 53.9534 21.3686C53.8878 21.0933 54.0586 20.8147 54.3328 20.7495C54.6069 20.6842 54.8849 20.8559 54.9504 21.1312Z" fill="#0B9032"/>
<path d="M28.3774 34.2006C28.443 34.4758 28.2723 34.7545 27.9981 34.8197C27.7239 34.885 27.4459 34.7133 27.3804 34.438C27.3149 34.1628 27.4856 33.8842 27.7598 33.8189C28.034 33.7536 28.3119 33.9254 28.3774 34.2006Z" fill="#0B9032"/>
<path d="M40.2275 34.631C40.2395 34.681 40.2015 34.7429 40.1517 34.7548L40.1267 34.7607C40.0769 34.7726 40.0151 34.7344 40.0032 34.6844C39.8721 34.1339 39.5633 33.9431 39.3092 33.8714C39.2534 33.8582 39.2106 33.7891 39.2236 33.7331C39.2366 33.6772 39.3054 33.6343 39.3612 33.6475C39.6712 33.7323 40.0726 33.9804 40.2275 34.631ZM39.7752 33.2845C39.1743 33.0839 39.0248 33.1195 38.5946 32.6403C38.3367 32.3315 37.9081 32.3014 37.6008 32.5596C37.2995 32.8429 37.2951 33.2669 37.572 33.5447C38.0022 34.024 37.9572 34.1669 38.0812 34.7983C38.3195 35.7991 39.5641 36.2695 40.3234 35.5864C41.1075 34.8973 40.7479 33.6081 39.7752 33.2845Z" fill="#97C230"/>
<path d="M37.3966 32.4761C36.9831 32.1779 37.2417 31.8255 37.3885 31.4468C37.9147 31.6653 37.4437 32.1211 37.3966 32.4761Z" fill="#0B9032"/>
<path d="M49.0811 9.20336C48.7397 9.76057 48.304 9.81143 47.9334 9.58241C47.5628 9.35338 47.4116 8.93991 47.7531 8.3827C48.0945 7.82549 48.7768 7.3722 49.1474 7.60123C49.537 7.79929 49.4225 8.64616 49.0811 9.20336Z" fill="#E52415"/>
<path d="M42.4509 20.4061C41.9751 20.7309 41.8818 21.3348 41.8818 21.3348C41.8878 21.3598 41.8688 21.3908 41.8439 21.3967C41.819 21.4026 41.8 21.4336 41.7691 21.4145C41.7133 21.4013 41.6765 21.3572 41.6895 21.3013C41.6835 21.2762 41.7838 20.5914 42.3285 20.2237C42.3723 20.1868 42.4282 20.2 42.465 20.2441C42.5078 20.3132 42.4948 20.3692 42.4509 20.4061ZM43.6691 19.2171C42.3643 19.1576 41.2696 20.423 41.1714 22.112C41.1551 22.4861 41.4438 22.8139 41.8166 22.8309C42.1894 22.8479 42.5157 22.5587 42.532 22.1847C42.5668 21.2246 43.1206 20.5639 43.605 20.6072C43.9778 20.6242 44.3041 20.335 44.3204 19.9609C44.3307 19.5619 44.0419 19.2341 43.6691 19.2171Z" fill="#97C230"/>
<path d="M41.8674 22.713C41.8674 22.713 42.1074 22.9467 42.0505 23.0396C42.0066 23.0765 41.8273 22.987 41.8273 22.987C41.8273 22.987 41.9009 23.0752 41.882 23.1061C41.844 23.168 41.6576 23.1596 41.6208 23.1154C41.6148 23.0904 41.6717 22.9976 41.6717 22.9976C41.6717 22.9976 41.4843 23.0951 41.4474 23.051C41.4046 22.9818 41.6371 22.7414 41.6371 22.7414L41.8674 22.713Z" fill="#97C230"/>
<path d="M44.0634 19.5461C44.0634 19.5461 44.2282 19.2425 44.3149 19.2747C44.3707 19.2879 44.3186 19.5118 44.3186 19.5118C44.3186 19.5118 44.3755 19.4189 44.4064 19.438C44.4622 19.4512 44.5289 19.6204 44.4909 19.6823C44.4719 19.7132 44.3603 19.6869 44.3603 19.6869C44.3603 19.6869 44.5267 19.8324 44.4887 19.8943C44.4259 19.9622 44.1289 19.8214 44.1289 19.8214L44.0634 19.5461Z" fill="#97C230"/>
<path d="M6.72976 20.6097C6.94109 20.6123 7.12044 20.7018 7.11338 20.7828C7.10633 20.8638 6.9378 20.9304 6.72648 20.9278C6.51515 20.9252 6.3358 20.8357 6.34285 20.7547C6.34991 20.6738 6.51843 20.6072 6.72976 20.6097Z" fill="#0B9032"/>
<path d="M6.90552 20.4623C6.90333 20.6743 6.94504 20.8495 7.0507 20.8507C7.13144 20.858 7.22032 20.6782 7.22252 20.4661C7.22471 20.2541 7.183 20.0789 7.07734 20.0777C6.9966 20.0705 6.90772 20.2503 6.90552 20.4623Z" fill="#0B9032"/>
<path d="M6.9552 20.4504C7.09661 20.6018 7.1692 20.796 7.10038 20.8389C7.03156 20.8817 6.85817 20.8172 6.7108 20.6408C6.56939 20.4894 6.4968 20.2952 6.56562 20.2523C6.63444 20.2095 6.80783 20.274 6.9552 20.4504Z" fill="#0B9032"/>
<path d="M9.61887 23.7821C9.67359 23.9012 9.53594 23.9869 9.44329 23.9296C9.13445 23.7388 8.58449 23.4203 8.07843 23.0649C8.23018 22.8172 8.41877 22.6137 8.43774 22.5827C8.25024 22.6802 8.08062 22.8528 7.95489 22.9885C7.73274 22.8299 7.50464 22.6463 7.30742 22.4817C7.44725 22.184 7.7426 21.8757 7.7426 21.8757C7.53614 22.0042 7.32262 22.2137 7.20285 22.3744C7.09828 22.2671 6.98775 22.1348 6.88318 22.0275C6.84634 21.9834 6.8534 21.9024 6.89729 21.8655C6.99809 21.7358 7.21161 21.5263 7.40616 21.3478C7.60071 21.1692 7.85107 21.0039 7.98871 20.9182C8.03261 20.8813 8.11335 20.8885 8.15019 20.9326C8.32844 21.1281 8.49368 21.3796 8.63995 21.6621C8.47738 21.7537 8.22702 21.919 8.08828 22.1107C8.08828 22.1107 8.43239 21.8966 8.72555 21.8003C8.90271 22.1019 9.03001 22.4153 9.17629 22.6977C9.03864 22.7833 8.86306 22.9309 8.76226 23.0607C8.78719 23.0547 8.99365 22.9263 9.231 22.8169C9.39515 23.1744 9.53437 23.5378 9.61887 23.7821Z" fill="#E52415"/>
<path d="M16.2271 20.1198C15.7162 19.6333 14.9748 20.3915 15.4858 20.8779C15.8981 21.2821 17.1563 21.0354 17.1563 21.0354C17.1563 21.0354 17.3559 19.7717 16.9436 19.3675C16.4267 18.856 15.7162 19.6333 16.2271 20.1198Z" fill="#0B9032"/>
<path d="M41.3257 16.7874C41.3913 15.8464 39.9381 15.7166 39.8843 16.7076C39.8387 17.5116 41.2014 18.5884 41.2014 18.5884C41.2014 18.5884 42.6965 17.6772 42.7421 16.8732C42.8208 15.8762 41.3854 15.8214 41.3257 16.7874Z" fill="#E52415"/>
<path d="M53.8462 10.0781C53.8879 10.2533 53.7302 10.4759 53.7161 10.6379C53.708 10.8249 53.8114 11.0382 53.7475 11.2121C53.6835 11.386 53.4343 11.4453 53.3145 11.606C53.1888 11.7417 53.1676 11.9847 53.005 12.0763C52.8425 12.1679 52.6133 12.0903 52.4388 12.1318C52.2643 12.1734 52.0697 12.3519 51.9083 12.3375C51.7219 12.329 51.5935 12.1216 51.4201 12.0571C51.2467 11.9926 51.0164 12.021 50.856 11.9006C50.7206 11.7742 50.7168 11.5372 50.6252 11.3739C50.5337 11.2106 50.2985 11.108 50.2568 10.9328C50.2151 10.7577 50.3728 10.535 50.3869 10.3731C50.3951 10.186 50.2916 9.97273 50.3556 9.79886C50.4195 9.625 50.6688 9.56564 50.7886 9.40493C50.9143 9.26923 50.9354 9.02624 51.098 8.93465C51.2606 8.84306 51.4898 8.92068 51.6643 8.87914C51.8388 8.83759 52.0333 8.65907 52.1948 8.6735C52.3812 8.68199 52.5096 8.88937 52.683 8.95384C52.8564 9.01831 53.0867 8.98991 53.247 9.11036C53.3825 9.23674 53.3863 9.4738 53.4778 9.63707C53.5694 9.80035 53.8045 9.90299 53.8462 10.0781Z" fill="#0B9032"/>
<path d="M51.3568 10.3536C51.2821 10.3714 51.2252 10.4643 51.243 10.5394C51.2609 10.6144 51.3536 10.6717 51.4283 10.6539C51.5031 10.6361 51.56 10.5432 51.5421 10.4682C51.5243 10.3931 51.4316 10.3358 51.3568 10.3536ZM51.476 10.8541C51.2766 10.9015 51.0913 10.787 51.0436 10.5869C50.996 10.3867 51.1098 10.201 51.3092 10.1535C51.5086 10.106 51.6939 10.2205 51.7416 10.4207C51.7892 10.6208 51.6754 10.8066 51.476 10.8541Z" fill="white"/>
<path d="M52.7165 10.5322C52.6417 10.55 52.5848 10.6429 52.6026 10.718C52.6205 10.793 52.7132 10.8503 52.788 10.8325C52.8627 10.8147 52.9196 10.7218 52.9018 10.6467C52.8779 10.5467 52.7912 10.5144 52.7165 10.5322ZM52.8356 11.0326C52.6362 11.0801 52.4509 10.9656 52.4032 10.7654C52.3556 10.5653 52.4694 10.3795 52.6688 10.3321C52.8682 10.2846 53.0535 10.3991 53.1012 10.5993C53.1429 10.7744 53.035 10.9852 52.8356 11.0326Z" fill="white"/>
<path d="M52.0239 11.3846L51.999 11.3905C51.9432 11.3774 51.9063 11.3333 51.8944 11.2832L52.0225 9.71925C52.0355 9.66327 52.0794 9.62638 52.1292 9.61451C52.185 9.62766 52.2219 9.67177 52.2338 9.72181L52.1058 11.2858C52.0927 11.3417 52.0488 11.3786 52.0239 11.3846Z" fill="white"/>
<path d="M53.1381 14.8472C53.0834 14.728 52.2437 12.9714 50.9545 14.4153C50.2689 15.1867 50.4016 16.1862 51.004 16.8359C51.6065 17.4856 52.5743 17.6782 53.4072 17.0833C54.9175 15.9041 53.2367 14.9294 53.1381 14.8472Z" fill="#E52415"/>
<path d="M53.6318 14.5974C53.4562 14.745 53.2628 14.8175 53.22 14.7484C53.1523 14.6852 53.2411 14.5054 53.4108 14.3328C53.5863 14.1852 53.7798 14.1127 53.8226 14.1818C53.8963 14.2701 53.8074 14.4499 53.6318 14.5974Z" fill="#0B9032"/>
<path d="M53.4475 14.377C53.4513 14.614 53.3624 14.7938 53.2567 14.7925C53.176 14.7853 53.1034 14.5911 53.1056 14.3791C53.1018 14.142 53.1907 13.9622 53.2964 13.9635C53.402 13.9648 53.4746 14.159 53.4475 14.377Z" fill="#0B9032"/>
<path d="M53.6257 14.5724C53.3894 14.5758 53.215 14.6174 53.2139 14.7234C53.2068 14.8044 53.3862 14.8939 53.6284 14.9155C53.8646 14.9121 54.0391 14.8706 54.0402 14.7646C54.0413 14.6586 53.837 14.575 53.6257 14.5724Z" fill="#0B9032"/>
<path d="M51.4111 15.3378C51.3862 15.3437 51.3862 15.3437 51.3553 15.3246C51.2995 15.3115 51.2567 15.2424 51.2946 15.1805C51.4746 14.6088 52.0669 14.4414 52.0918 14.4354C52.1416 14.4236 52.2034 14.4617 52.2153 14.5118C52.2272 14.5618 52.1893 14.6237 52.1394 14.6356C52.1394 14.6356 51.6469 14.7793 51.4929 15.239C51.4799 15.295 51.436 15.3319 51.4111 15.3378Z" fill="white"/>
<path d="M21.017 12.5809C20.6707 13.0071 20.5655 13.5609 20.6847 14.0613C20.7085 14.1614 20.8012 14.2187 20.8819 14.2259C21.3972 14.2883 21.9277 14.0826 22.28 13.6815C22.6263 13.2553 22.7315 12.7015 22.6123 12.2011C22.5885 12.101 22.4958 12.0437 22.4151 12.0365C21.8998 11.9741 21.3633 12.1547 21.017 12.5809Z" fill="#97C230"/>
<path d="M21.043 13.6853C21.0181 13.6912 20.9932 13.6971 20.9932 13.6971C20.9374 13.684 20.9005 13.6399 20.8886 13.5898C20.8826 13.5648 20.9651 12.8049 21.4837 12.5492C21.5335 12.5373 21.5893 12.5505 21.6262 12.5946C21.6381 12.6446 21.6251 12.7006 21.5812 12.7375C21.1813 12.9385 21.0999 13.5924 21.1059 13.6174C21.0869 13.6484 21.062 13.6543 21.043 13.6853Z" fill="white"/>
<path d="M16.3843 12.1507C16.4032 12.1197 16.3913 12.0697 16.3545 12.0256C16.1881 11.8801 15.9839 11.7965 15.7476 11.7999C15.5113 11.8033 15.293 11.8817 15.1114 12.0043C15.0675 12.0412 15.0794 12.0912 15.0854 12.1162L15.6716 13.14C15.6775 13.165 15.7274 13.1531 15.7274 13.1531L16.3843 12.1507Z" fill="#97C230"/>
<path d="M40.6375 13.0118C40.5877 13.0237 40.5568 13.0046 40.5449 12.9545C40.533 12.9045 40.5519 12.8735 40.6018 12.8617C40.6267 12.8557 42.7536 12.1642 43.5915 10.4841C43.6105 10.4531 43.6544 10.4163 43.7161 10.4544C43.747 10.4735 43.7839 10.5176 43.7459 10.5795C42.8582 12.2715 40.7313 12.963 40.6375 13.0118Z" fill="#0B9032"/>
<path d="M43.1692 12.2503C43.1442 12.2563 43.1134 12.2372 43.0825 12.2181C43.0456 12.174 42.6333 11.7698 42.823 11.4603C42.842 11.4293 42.8918 11.4174 42.9476 11.4306C42.9785 11.4497 42.9904 11.4997 42.9774 11.5557C42.8826 11.7105 43.1345 11.9942 43.2142 12.1074C43.251 12.1515 43.238 12.2075 43.2131 12.2134C43.219 12.2385 43.1941 12.2444 43.1692 12.2503Z" fill="#0B9032"/>
<path d="M41.0487 13.522C40.9988 13.5339 40.962 13.4898 40.956 13.4648C40.9501 13.4397 40.8309 12.9393 41.4324 12.4788C41.4763 12.4419 41.5321 12.4551 41.5441 12.5051C41.5809 12.5492 41.5679 12.6052 41.518 12.6171C41.0043 13.0038 41.0996 13.4041 41.1056 13.4292C41.1115 13.4542 41.0985 13.5102 41.0487 13.522Z" fill="#0B9032"/>
<path d="M42.3556 13.3694C42.3307 13.3753 42.2998 13.3562 42.2689 13.3372C42.2689 13.3372 41.6795 12.6315 42.1705 12.0387C42.1894 12.0077 42.2393 11.9958 42.3011 12.034C42.3319 12.0531 42.3439 12.1031 42.3059 12.165C41.8968 12.659 42.3757 13.2324 42.4066 13.2515C42.4434 13.2956 42.4304 13.3516 42.4055 13.3575C42.3806 13.3635 42.3806 13.3635 42.3556 13.3694Z" fill="#0B9032"/>
<path d="M40.6482 13.1679C40.6482 13.1679 39.7596 12.5334 38.4833 13.9213C38.4893 13.9463 39.5865 14.2403 40.6482 13.1679Z" fill="#0B9032"/>
<path d="M43.1637 11.5642C43.1637 11.5642 44.2376 12.3132 45.4922 10.6132C45.4613 10.5941 44.4128 10.3943 43.1637 11.5642Z" fill="#0B9032"/>
<path d="M43.4268 13.7754C43.6955 14.2402 43.6651 14.7762 43.315 14.9653C42.9899 15.1485 42.4947 14.9492 42.2259 14.4844C41.9572 14.0196 41.9876 13.4835 42.3128 13.3004C42.6818 13.0803 43.1581 13.3106 43.4268 13.7754Z" fill="#97C230"/>
<path d="M42.6671 13.9034C42.7467 14.0166 42.7326 14.1786 42.6638 14.2215C42.595 14.2643 42.4525 14.2189 42.3918 14.0747C42.3122 13.9615 42.3263 13.7995 42.3951 13.7567C42.4888 13.7079 42.6124 13.7842 42.6671 13.9034Z" fill="white"/>
<path d="M44.2316 12.2882C44.5881 12.6792 44.6634 13.2165 44.381 13.4688C44.0987 13.7211 43.5774 13.6337 43.2209 13.2427C42.8644 12.8517 42.7892 12.3144 43.0715 12.0621C43.3479 11.7847 43.8751 11.8972 44.2316 12.2882Z" fill="#97C230"/>
<path d="M43.5386 12.5854C43.6432 12.6927 43.673 12.8178 43.5852 12.8916C43.5223 12.9595 43.3798 12.9141 43.2753 12.8068C43.1707 12.6995 43.1409 12.5744 43.2287 12.5006C43.2916 12.4327 43.4341 12.4781 43.5386 12.5854Z" fill="white"/>
<path d="M41.8446 14.0993C41.9448 14.6306 41.7161 15.1081 41.3362 15.1721C40.9564 15.2361 40.5809 14.8761 40.4807 14.3447C40.3805 13.8133 40.6093 13.3359 40.9891 13.2718C41.363 13.1828 41.7444 13.5679 41.8446 14.0993Z" fill="#97C230"/>
<path d="M41.0751 13.9652C41.1109 14.1153 41.0599 14.2332 40.9602 14.2569C40.8605 14.2807 40.7809 14.1674 40.7451 14.0173C40.7094 13.8672 40.7603 13.7493 40.86 13.7255C40.9597 13.7018 41.0643 13.8091 41.0751 13.9652Z" fill="white"/>
<path d="M26.5527 9.27994L26.2178 9.20104C26.1062 9.17474 26.0515 9.05558 26.0526 8.94956L26.1307 8.6137C26.1567 8.50175 26.2694 8.42203 26.381 8.44833L26.7159 8.52723C26.8275 8.55353 26.9071 8.66676 26.8811 8.77871L26.8031 9.11457C26.777 9.22653 26.6643 9.30624 26.5527 9.27994Z" fill="#E52415"/>
<path d="M46.3036 30.1701C46.0885 29.9305 45.8913 29.766 45.7119 29.6765C45.6252 29.6442 45.6204 29.5132 45.7141 29.4644C45.9574 29.3801 46.3053 29.403 46.6082 29.5688C46.9788 29.7978 47.1678 30.1494 47.1337 30.4484C47.1207 30.5044 47.0768 30.5412 47.002 30.5591C46.7907 30.5565 46.5555 30.4539 46.3036 30.1701Z" fill="#0B9032"/>
<path d="M45.8991 30.7952C45.5285 30.5662 45.3086 30.1955 45.3676 29.8906C45.3807 29.8346 45.4495 29.7918 45.5053 29.8049C45.7036 29.8635 45.9258 30.0221 46.1528 30.3117C46.337 30.5323 46.5282 30.6718 46.7266 30.7303C46.8133 30.7626 46.8241 30.9186 46.7244 30.9424C46.5 30.9958 46.1771 30.9669 45.8991 30.7952Z" fill="#0B9032"/>
<path d="M29.85 27.6633C29.8001 27.6751 29.7693 27.656 29.7384 27.637C29.4258 27.2091 29.1831 26.6323 29.0569 26.2129C28.8617 27.0525 28.0678 27.4795 28.0429 27.4855C27.999 27.5223 27.9372 27.4842 27.9004 27.4401C27.8635 27.396 27.9015 27.3341 27.9454 27.2972C27.9454 27.2972 29.0145 26.6989 28.8889 25.6183C28.877 25.5683 28.915 25.5064 28.9648 25.4945C29.0147 25.4826 29.0764 25.5208 29.0884 25.5708C29.0884 25.5708 29.3684 26.7468 29.914 27.4894C29.9508 27.5335 29.9378 27.5895 29.8939 27.6264C29.8749 27.6573 29.85 27.6633 29.85 27.6633Z" fill="#0B9032"/>
<path d="M28.589 27.5669C28.6725 27.9172 28.4698 28.2827 28.1018 28.3968C27.7528 28.4799 27.3882 28.2759 27.2739 27.9065C27.1905 27.5562 27.3932 27.1907 27.7611 27.0766C28.135 26.9876 28.5056 27.2166 28.589 27.5669Z" fill="#E52415"/>
<path d="M27.6228 27.8234C27.6228 27.8234 27.5979 27.8293 27.6228 27.8234C27.5421 27.8162 27.4803 27.778 27.4933 27.722C27.4906 27.379 27.7529 27.2636 27.7778 27.2577C27.8277 27.2458 27.8835 27.259 27.9263 27.3281C27.9382 27.3781 27.9252 27.4341 27.8813 27.471C27.8564 27.4769 27.7377 27.5316 27.7355 27.7437C27.7166 27.7746 27.6727 27.8115 27.6228 27.8234Z" fill="#FFFCFA"/>
<path d="M30.7462 27.5556C30.9352 27.9072 30.7943 28.3109 30.4442 28.5C30.0882 28.6641 29.6916 28.547 29.5025 28.1955C29.3384 27.838 29.4793 27.4342 29.8044 27.2511C30.1355 27.0929 30.5631 27.2291 30.7462 27.5556Z" fill="#E52415"/>
<path d="M29.7839 28.0491C29.734 28.061 29.6723 28.0228 29.6604 27.9728C29.5769 27.6225 29.8273 27.4571 29.8522 27.4512C29.8961 27.4143 29.9519 27.4274 29.9888 27.4715C30.0256 27.5156 30.0126 27.5716 29.9687 27.6085C29.9438 27.6144 29.837 27.7192 29.8847 27.9193C29.8717 27.9753 29.8337 28.0372 29.7839 28.0491Z" fill="#FFFCFA"/>
<path d="M28.9398 25.5005C28.9398 25.5005 29.4037 25.1256 29.835 25.4988C30.2663 25.872 30.7897 25.7474 30.7897 25.7474C30.7897 25.7474 30.3025 26.5773 29.4426 26.1739C28.7062 25.8469 28.9398 25.5005 28.9398 25.5005Z" fill="#0B9032"/>
<path d="M15.7985 30.9297C15.7275 31.1846 15.4035 31.2618 15.1423 31.2711C15.2561 31.0853 15.339 30.8805 15.3661 30.6626C15.416 30.6507 15.4658 30.6388 15.5157 30.6269C15.6214 30.6282 15.7389 30.6795 15.7758 30.7236C15.8186 30.7928 15.8365 30.8678 15.7985 30.9297ZM16.0072 30.5892C15.8966 30.4569 15.7422 30.3615 15.5309 30.3589C15.481 30.3708 15.4502 30.3517 15.4003 30.3636C15.4133 30.3076 15.4014 30.2576 15.3895 30.2075L11.8668 30.0152C11.8598 30.0962 11.8527 30.1772 11.8457 30.2582C11.8093 30.7692 12.0282 31.2459 12.3478 31.5928C12.4524 31.7001 12.519 31.8693 12.5299 32.0253C12.5358 32.0504 12.5418 32.0754 12.5976 32.0885L13.4239 32.1297C13.4548 32.1488 13.5047 32.1369 13.5296 32.131C13.5545 32.1251 13.6103 32.1382 13.6353 32.1323L14.4616 32.1735C14.4865 32.1675 14.5115 32.1616 14.5304 32.1306C14.5445 31.9686 14.6394 31.8139 14.7521 31.7341C14.8209 31.6913 14.8588 31.6294 14.9027 31.5925C15.2197 31.5963 15.9225 31.5612 16.0586 31.0265C16.1356 30.7966 16.0809 30.6774 16.0072 30.5892Z" fill="#E52415"/>
<path d="M14.2876 31.5538C14.2627 31.5598 14.2318 31.5407 14.2009 31.5216C14.1641 31.4775 14.1522 31.4274 14.1901 31.3655C14.5732 30.9835 14.5337 30.5963 14.5278 30.5713C14.5159 30.5212 14.5538 30.4593 14.6286 30.4415C14.6784 30.4296 14.7402 30.4678 14.7581 30.5429C14.764 30.5679 14.8024 31.0611 14.3564 31.511C14.3375 31.542 14.3125 31.5479 14.2876 31.5538Z" fill="#FFFCFA"/>
<path d="M34.8251 35.2828L34.1553 35.125C34.0995 35.1119 34.0567 35.0428 34.0448 34.9927L33.8526 33.743C33.8466 33.718 33.8656 33.687 33.9155 33.6751C34.2254 33.76 35.4841 34.0683 35.8439 34.1413C35.8748 34.1604 35.8807 34.1854 35.8618 34.2164L34.9936 35.2163C34.9497 35.2532 34.9058 35.2901 34.8251 35.2828Z" fill="#97C230"/>
<path d="M35.8521 33.9543L33.9237 33.4882C33.7562 33.4487 33.6647 33.2854 33.7037 33.1175C33.7427 32.9496 33.9053 32.858 34.0727 32.8974C34.0727 32.8974 33.9931 32.7842 34.0251 32.6973C34.0571 32.6103 34.1448 32.5365 34.2565 32.5628L34.4548 32.6214C34.425 32.4963 34.5209 32.2355 34.8059 32.3263C35.1159 32.4111 35.3949 32.4768 35.6096 32.1613C35.6096 32.1613 35.9363 32.4273 35.7715 32.7309C35.7395 32.8178 35.7016 32.8797 35.6886 32.9357L35.9985 33.0205C36.1101 33.0468 36.1589 33.141 36.1329 33.2529C36.1069 33.3649 36.0131 33.4137 35.9015 33.3874L35.9882 33.4196C36.1556 33.459 36.2472 33.6223 36.2081 33.7902C36.207 33.8963 36.0195 33.9938 35.8521 33.9543Z" fill="#E52415"/>
<path d="M15.7026 40.8144C14.8973 41.7465 13.6141 41.9991 12.6318 41.4134C11.6743 40.8218 11.2957 39.5636 11.7803 38.3906C11.8123 38.3037 11.8811 38.2608 11.9559 38.243C12.0306 38.2252 12.0865 38.2384 12.1482 38.2766L15.6322 40.4082C15.694 40.4463 15.7368 40.5155 15.7487 40.5655C15.7725 40.6656 15.7654 40.7466 15.7026 40.8144ZM15.7899 40.1855L12.3 38.0289C12.1764 37.9526 12.0399 37.9322 11.8903 37.9678C11.7158 38.0094 11.5842 38.12 11.5202 38.2939C11.0037 39.5538 11.418 40.9621 12.499 41.6301C13.5799 42.2981 15.0186 42.0349 15.8998 40.979C16.0006 40.8492 16.0646 40.6754 16.0229 40.5002C15.9931 40.3751 15.9134 40.2619 15.7899 40.1855Z" fill="#97C230"/>
<path d="M14.2044 40.8275C14.1047 40.8512 13.9812 40.7749 13.9574 40.6748C13.9514 40.6498 13.9454 40.6248 13.9644 40.5938L14.0436 40.1519L14.3134 40.5107C14.393 40.6239 14.3291 40.7978 14.2044 40.8275ZM13.5012 40.3075C13.4811 40.4445 13.3185 40.5361 13.195 40.4597C13.1332 40.4216 13.1273 40.3965 13.1153 40.3465C13.0975 40.2714 13.1294 40.1845 13.1983 40.1417L13.5613 39.8966L13.5012 40.3075ZM12.6911 39.8923C12.5914 39.916 12.4738 39.8647 12.444 39.7396C12.4083 39.5895 12.54 39.4788 12.6765 39.4992L13.117 39.5794L12.7599 39.8495C12.741 39.8804 12.716 39.8864 12.6911 39.8923ZM15.4199 40.5116L12.177 38.5077C12.1461 38.4886 12.1153 38.4695 12.0714 38.5064C12.0215 38.5183 12.0025 38.5492 11.9836 38.5802C11.5689 39.6043 11.8869 40.7183 12.7516 41.2527C13.6164 41.7871 14.75 41.5701 15.4735 40.7368C15.4925 40.7059 15.5055 40.6499 15.4995 40.6249C15.4816 40.5498 15.4508 40.5307 15.4199 40.5116Z" fill="#97C230"/>
<path d="M20.6731 25.4065C20.5853 25.4803 20.4488 25.4599 20.3691 25.3467C20.2954 25.2584 20.3155 25.1215 20.4282 25.0418C20.516 24.968 20.6526 24.9883 20.7322 25.1016C20.7869 25.2207 20.7669 25.3577 20.6731 25.4065ZM20.0062 24.3755C19.8246 24.4981 19.6014 24.4455 19.4849 24.2881C19.3625 24.1058 19.4145 23.8819 19.5711 23.7652C19.7527 23.6427 19.9759 23.6953 20.0924 23.8526C20.2089 24.01 20.1628 24.2589 20.0062 24.3755ZM19.7045 22.8874C19.5479 23.004 19.3247 22.9514 19.2391 22.8132C19.1226 22.6558 19.1746 22.4319 19.3123 22.3463C19.4689 22.2297 19.6921 22.2823 19.7777 22.4205C19.8883 22.5528 19.8611 22.7708 19.7045 22.8874ZM18.4344 23.0841C18.514 23.1973 18.4939 23.3343 18.3812 23.414C18.2685 23.4938 18.132 23.4734 18.0523 23.3602C17.9727 23.2469 17.9927 23.11 18.1055 23.0302C18.1933 22.9564 18.3547 22.9709 18.4344 23.0841ZM21.0605 25.8166L21.5802 25.4549C21.8495 25.2586 21.9216 24.8977 21.7753 24.6152L21.6838 24.452C21.6469 24.4079 21.6161 24.3888 21.5662 24.4006C21.3917 24.4422 21.2183 24.3777 21.1078 24.2454C20.9913 24.0881 21.0125 23.8451 21.1382 23.7094C21.1572 23.6784 21.1702 23.6224 21.1583 23.5724L20.2297 21.9956C20.0466 21.6691 19.631 21.583 19.3118 21.7912L17.7668 22.7143C17.4287 22.9534 17.4172 23.4585 17.744 23.7244L20.29 25.7885C20.5181 25.9722 20.8101 25.982 21.0605 25.8166Z" fill="#97C230"/>
<path d="M24.1656 24.9187C24.3531 24.8211 24.3791 24.7092 24.3304 24.615C24.2816 24.5209 24.2009 24.5137 24.0193 24.6362C23.8378 24.7588 23.6075 24.7872 23.6075 24.7872C23.6075 24.7872 23.8844 25.065 24.1656 24.9187Z" fill="#0B9032"/>
<path d="M24.5618 24.4807C24.5358 24.5926 24.3283 24.8271 24.2307 24.6389C24.1023 24.4315 24.3728 24.1291 24.375 23.9171C24.5164 24.0685 24.6198 24.2818 24.5618 24.4807Z" fill="#0B9032"/>
<path d="M24.3293 24.7211C24.1808 24.6507 24.0514 24.5493 23.9658 24.4111C23.8861 24.2978 23.8872 24.1918 23.9132 24.0798C23.9393 23.9679 24.1495 24.0765 24.1056 24.1134C24.0617 24.1503 24.0546 24.2312 24.0666 24.2813C24.0963 24.4064 24.176 24.5196 24.2746 24.6019C24.3055 24.621 24.3423 24.6651 24.3732 24.6842C24.3673 24.6592 24.3293 24.7211 24.3293 24.7211Z" fill="#0B9032"/>
<path d="M24.422 24.7783C24.422 24.7783 23.6237 25.6294 24.3579 26.1684C25.117 26.7015 25.9645 26.4997 26.1282 26.3021C26.2918 26.1045 26.4003 25.2326 25.761 24.5388C25.1525 23.8641 24.422 24.7783 24.422 24.7783Z" fill="#E52415"/>
<path d="M24.6932 25.5862C24.7301 25.6303 24.723 25.7113 24.723 25.7113C24.723 25.7113 24.6233 25.735 24.5865 25.6909C24.5496 25.6468 24.5377 25.5967 24.5567 25.5658C24.5756 25.5348 24.6315 25.548 24.6932 25.5862Z" fill="white"/>
<path d="M25.0207 25.191C25.0576 25.2351 25.0505 25.3161 25.0505 25.3161C25.0505 25.3161 24.9508 25.3398 24.914 25.2957C24.8771 25.2516 24.8652 25.2016 24.8842 25.1706C24.9091 25.1647 24.9839 25.1469 25.0207 25.191Z" fill="white"/>
<path d="M25.3479 24.7958C25.3847 24.8399 25.3777 24.9209 25.3777 24.9209C25.3777 24.9209 25.278 24.9447 25.2411 24.9006C25.2043 24.8565 25.1924 24.8064 25.2113 24.7755C25.2612 24.7636 25.311 24.7517 25.3479 24.7958Z" fill="white"/>
<path d="M25.1896 25.6795C25.2264 25.7236 25.2193 25.8046 25.2193 25.8046C25.2193 25.8046 25.1196 25.8284 25.0828 25.7843C25.046 25.7402 25.034 25.6901 25.053 25.6592C25.072 25.6282 25.1278 25.6414 25.1896 25.6795Z" fill="white"/>
<path d="M25.517 25.2843C25.5538 25.3284 25.5467 25.4094 25.5467 25.4094C25.5467 25.4094 25.447 25.4331 25.4102 25.389C25.3734 25.3449 25.3614 25.2949 25.3804 25.2639C25.3994 25.233 25.4801 25.2402 25.517 25.2843Z" fill="white"/>
<path d="M25.6799 25.7478C25.7167 25.792 25.7097 25.8729 25.7097 25.8729C25.7097 25.8729 25.61 25.8967 25.5731 25.8526C25.5363 25.8085 25.5244 25.7584 25.5434 25.7275C25.5683 25.7215 25.6241 25.7347 25.6799 25.7478Z" fill="white"/>
<path d="M52.0545 28.8801C52.242 28.7826 52.2681 28.6706 52.2193 28.5765C52.1705 28.4823 52.0898 28.4751 51.9083 28.5977C51.7267 28.7202 51.4964 28.7486 51.4964 28.7486C51.4964 28.7486 51.7733 29.0264 52.0545 28.8801Z" fill="#0B9032"/>
<path d="M52.4505 28.442C52.4245 28.5539 52.2169 28.7884 52.1194 28.6002C51.991 28.3928 52.2614 28.0904 52.2636 27.8784C52.405 28.0298 52.5334 28.2372 52.4505 28.442Z" fill="#0B9032"/>
<path d="M52.2431 28.6765C52.0947 28.6061 51.9652 28.5047 51.8796 28.3665C51.7999 28.2533 51.801 28.1472 51.827 28.0353C51.8531 27.9233 52.0633 28.0319 52.0194 28.0688C51.9755 28.1057 51.9685 28.1867 51.9804 28.2367C52.0102 28.3618 52.0898 28.4751 52.1884 28.5573C52.2193 28.5764 52.2561 28.6205 52.287 28.6396C52.2811 28.6146 52.2431 28.6765 52.2431 28.6765Z" fill="#0B9032"/>
<path d="M52.3356 28.7338C52.3356 28.7338 51.5373 29.5848 52.2715 30.1239C53.0306 30.657 53.8781 30.4552 54.0418 30.2576C54.2054 30.06 54.3139 29.1881 53.6746 28.4942C53.0661 27.8195 52.3356 28.7338 52.3356 28.7338Z" fill="#E52415"/>
<path d="M52.5821 29.5476C52.619 29.5917 52.6119 29.6727 52.6119 29.6727C52.6119 29.6727 52.5122 29.6964 52.4754 29.6523C52.4385 29.6082 52.4266 29.5582 52.4456 29.5272C52.4895 29.4903 52.5453 29.5035 52.5821 29.5476Z" fill="white"/>
<path d="M52.9343 29.1464C52.9711 29.1905 52.9641 29.2715 52.9641 29.2715C52.9641 29.2715 52.8644 29.2953 52.8275 29.2511C52.7907 29.207 52.7788 29.157 52.7977 29.126C52.8227 29.1201 52.8725 29.1082 52.9343 29.1464Z" fill="white"/>
<path d="M53.2617 28.7513C53.2985 28.7954 53.2915 28.8764 53.2915 28.8764C53.2915 28.8764 53.1918 28.9001 53.1549 28.856C53.1181 28.8119 53.1062 28.7619 53.1251 28.7309C53.175 28.719 53.2248 28.7072 53.2617 28.7513Z" fill="white"/>
<path d="M53.0785 29.641C53.1153 29.6851 53.1083 29.7661 53.1083 29.7661C53.1083 29.7661 53.0086 29.7898 52.9717 29.7457C52.9349 29.7016 52.923 29.6516 52.9419 29.6206C52.9858 29.5837 53.0416 29.5969 53.0785 29.641Z" fill="white"/>
<path d="M53.4308 29.2397C53.4676 29.2838 53.4606 29.3648 53.4606 29.3648C53.4606 29.3648 53.3609 29.3886 53.324 29.3445C53.2872 29.3003 53.2753 29.2503 53.2942 29.2194C53.3132 29.1884 53.369 29.2015 53.4308 29.2397Z" fill="white"/>
<path d="M53.5688 29.7093C53.6057 29.7534 53.5986 29.8344 53.5986 29.8344C53.5986 29.8344 53.4989 29.8581 53.4621 29.814C53.4252 29.7699 53.4133 29.7199 53.4323 29.6889C53.4821 29.677 53.5379 29.6902 53.5688 29.7093Z" fill="white"/>
<path d="M44.0378 32.2695C44.0053 31.8013 44.3673 31.6623 44.7092 31.6602C44.8083 32.2976 44.3131 32.0982 44.0378 32.2695Z" fill="#97C230"/>
<path d="M44.3583 33.7267C44.1534 34.3043 43.6278 34.6409 43.1694 34.4857C42.711 34.3305 42.4872 33.7227 42.6921 33.1452C42.897 32.5676 43.4227 32.2309 43.8811 32.3862C44.3395 32.5414 44.5632 33.1491 44.3583 33.7267Z" fill="#E52415"/>
<path d="M35.0472 27.0338C34.9285 27.0885 34.8229 27.0873 34.6863 27.0669C35.0017 26.6216 34.7081 26.1628 34.2557 26.0326C34.0823 25.9681 33.8899 25.9346 33.7545 25.8082C33.5264 25.6246 33.386 25.3671 33.2956 25.0978C33.0669 25.5753 32.9189 26.06 33.1247 26.5927C33.3127 27.0503 33.8783 27.6559 34.4099 27.3442C34.1569 27.1665 33.867 26.9447 33.7706 26.6504C33.9917 26.915 34.2566 27.1428 34.5915 27.2217C34.734 27.2671 34.8955 27.2815 35.045 27.2459C35.2444 27.1984 35.2157 26.9673 35.0472 27.0338C35.0472 27.0338 35.122 27.016 35.0472 27.0338Z" fill="#0B9032"/>
<path d="M21.0623 11.2218C20.257 12.1538 19.5059 12.6499 19.2624 13.9506C19.032 15.1952 18.5786 13.9547 18.5472 13.3806C18.5035 12.2012 19.0021 10.8663 19.9489 10.0856C20.8577 9.36687 21.8237 10.3266 21.0623 11.2218C20.8108 11.4932 21.1631 11.092 21.0623 11.2218Z" fill="#E52415"/>
<path d="M22.8371 9.7152C22.8371 9.7152 22.7444 9.65795 22.5461 9.59941C22.3727 9.53494 22.1305 9.5133 21.8753 9.54763C21.645 9.57603 21.4515 9.64853 21.283 9.7151C21.1963 9.68286 21.0847 9.65656 20.8912 9.72907C21.1204 9.80669 21.2927 9.97718 21.3772 10.2214C21.3902 10.1655 21.4352 10.0226 21.4174 9.9475C21.555 9.86185 21.7235 9.79528 21.904 9.77875C22.1034 9.73127 22.3207 9.75885 22.4881 9.7983C22.6555 9.83775 22.7422 9.86998 22.7422 9.86998C22.7731 9.88907 22.8479 9.87126 22.8609 9.81528C22.9108 9.80341 22.8988 9.75337 22.8371 9.7152Z" fill="#0B9032"/>
<path d="M19.3721 11.7564C19.3472 11.7624 19.3222 11.7683 19.3163 11.7433C19.2605 11.7301 19.2426 11.6551 19.2556 11.5991C19.7402 10.4261 20.4511 10.204 20.4761 10.198C20.5259 10.1862 20.5877 10.2243 20.5996 10.2744C20.6115 10.3244 20.5736 10.3863 20.5237 10.3982C20.4988 10.4041 19.8686 10.6335 19.435 11.6886C19.416 11.7195 19.397 11.7505 19.3721 11.7564Z" fill="white"/>
<path d="M19.3199 11.9803C19.3318 12.0304 19.2939 12.0923 19.244 12.1042C19.1942 12.116 19.1324 12.0779 19.1205 12.0278C19.1086 11.9778 19.1465 11.9159 19.1964 11.904C19.2462 11.8921 19.308 11.9303 19.3199 11.9803Z" fill="white"/>
<path d="M17.9432 26.1095C17.9183 26.1154 17.8874 26.0964 17.8815 26.0713C17.8755 26.0463 17.8945 26.0154 17.9194 26.0094C17.9443 26.0035 17.9752 26.0226 17.9812 26.0476C18.0121 26.0667 17.9931 26.0976 17.9432 26.1095ZM17.6955 26.618C17.6706 26.6239 17.6397 26.6048 17.6338 26.5798C17.6278 26.5548 17.6468 26.5238 17.6717 26.5179C17.6966 26.5119 17.7275 26.531 17.7335 26.556C17.7644 26.5751 17.7454 26.6061 17.6955 26.618ZM17.5254 26.2354C17.5195 26.2104 17.5385 26.1795 17.5634 26.1735C17.5883 26.1676 17.6192 26.1867 17.6252 26.2117C17.6311 26.2367 17.6121 26.2677 17.5872 26.2736C17.5623 26.2795 17.5314 26.2605 17.5254 26.2354ZM17.2967 26.7129C17.2718 26.7189 17.2409 26.6998 17.235 26.6748C17.229 26.6497 17.248 26.6188 17.2729 26.6128C17.2978 26.6069 17.3287 26.626 17.3347 26.651C17.3406 26.676 17.3217 26.707 17.2967 26.7129ZM17.2864 27.112C17.2615 27.1179 17.2306 27.0988 17.2246 27.0738C17.2187 27.0488 17.2376 27.0178 17.2626 27.0119C17.2875 27.006 17.3184 27.025 17.3243 27.0501C17.3552 27.0691 17.3362 27.1001 17.2864 27.112ZM16.8946 27.1259C16.8697 27.1319 16.8388 27.1128 16.8328 27.0878C16.8269 27.0628 16.8459 27.0318 16.8708 27.0259C16.8957 27.0199 16.9266 27.039 16.9326 27.064C16.9634 27.0831 16.9445 27.1141 16.8946 27.1259ZM16.8783 27.5C16.8534 27.5059 16.8225 27.4868 16.8166 27.4618C16.8106 27.4368 16.8296 27.4058 16.8545 27.3999C16.8794 27.394 16.9103 27.413 16.9163 27.4381C16.9222 27.4631 16.9032 27.494 16.8783 27.5ZM16.4876 27.4079C16.4627 27.4139 16.4318 27.3948 16.4259 27.3698C16.4199 27.3447 16.4389 27.3138 16.4638 27.3078C16.4887 27.3019 16.5196 27.321 16.5256 27.346C16.5315 27.371 16.5126 27.402 16.4876 27.4079ZM16.3847 27.7497C16.3597 27.7557 16.3288 27.7366 16.3229 27.7115C16.3169 27.6865 16.3359 27.6556 16.3608 27.6496C16.3857 27.6437 16.4166 27.6628 16.4226 27.6878C16.4285 27.7128 16.4096 27.7438 16.3847 27.7497ZM18.1671 25.501C17.8534 25.1791 17.324 25.2787 17.1581 25.6884C16.6877 26.6993 16.1241 27.0979 15.7681 27.262C15.6494 27.3167 15.5426 27.4214 15.4976 27.5643C15.4716 27.6763 15.4765 27.8073 15.5312 27.9265C15.3627 27.9931 15.1502 28.0965 15.2548 28.2038C15.3285 28.292 15.3914 28.2242 15.4044 28.1682C15.4672 28.1004 15.5052 28.0385 15.58 28.0206C15.5859 28.0457 15.6168 28.0648 15.6227 28.0898C15.7582 28.2162 15.9256 28.2556 16.1001 28.2141C17.0663 27.9576 17.8218 27.0374 18.264 26.3504C18.4098 26.0777 18.3762 25.7156 18.1671 25.501Z" fill="#0B9032"/>
<path d="M38.2533 11.5173C37.6707 11.9468 36.8455 11.7996 36.3796 11.1702C35.9196 10.5659 36.034 9.71904 36.6166 9.2895C37.1991 8.85995 38.0244 9.00716 38.4903 9.63651C38.9254 10.2468 38.8359 11.0877 38.2533 11.5173Z" fill="#E52415"/>
<path d="M38.5776 9.00761C38.6004 9.21371 38.5494 9.3316 38.4497 9.35534C38.35 9.37908 38.2454 9.27178 38.2227 9.06568C38.2 8.85958 38.3517 8.61194 38.3517 8.61194C38.3517 8.61194 38.53 8.80744 38.5776 9.00761Z" fill="#0B9032"/>
<path d="M38.7526 9.5212C38.6221 9.52586 38.5354 9.49363 38.5175 9.41856C38.4996 9.3435 38.5684 9.30067 38.718 9.26506C38.8486 9.26041 39.0279 9.3499 39.0279 9.3499C39.0279 9.3499 38.9022 9.48559 38.7526 9.5212Z" fill="#0B9032"/>
<path d="M37.9645 11.1894C37.9396 11.1953 37.8838 11.1821 37.8529 11.1631C37.8161 11.119 37.8291 11.063 37.867 11.0011C38.1683 10.7178 38.2085 10.4439 38.1857 10.2378C38.1738 10.1877 38.2117 10.1258 38.2865 10.108C38.3364 10.0961 38.3981 10.1343 38.3911 10.2153C38.4198 10.4464 38.3786 10.8264 38.0084 11.1525C38.0144 11.1775 37.9895 11.1834 37.9645 11.1894Z" fill="white"/>
<path d="M37.7332 11.3238C37.7202 11.3798 37.6763 11.4167 37.6205 11.4035C37.5647 11.3904 37.5279 11.3463 37.5409 11.2903C37.5539 11.2343 37.5978 11.1974 37.6536 11.2106C37.6785 11.2047 37.7154 11.2488 37.7332 11.3238Z" fill="white"/>
<path d="M32.5616 35.954C32.5984 35.9981 32.5854 36.0541 32.5664 36.085C32.5664 36.085 32.5664 36.085 32.5475 36.116C32.5036 36.1529 32.4477 36.1397 32.4109 36.0956C31.8702 35.4841 31.5294 35.3802 31.5294 35.3802C31.4736 35.367 31.4308 35.2979 31.4438 35.2419C31.4568 35.1859 31.5007 35.149 31.5565 35.1622C31.5874 35.1813 31.978 35.2733 32.5616 35.954ZM32.8481 36.4939C32.8043 36.5308 32.7295 36.5486 32.6926 36.5045C32.6558 36.4604 32.6379 36.3853 32.6818 36.3484C32.7257 36.3115 32.8005 36.2937 32.8373 36.3378C32.8931 36.351 32.8861 36.432 32.8481 36.4939ZM31.6936 34.5214C31.3826 34.5426 31.181 34.8021 31.0352 35.0748C30.8916 35.1354 30.735 35.252 30.6342 35.3818C30.5773 35.4747 30.5204 35.5675 30.5193 35.6736C30.4803 35.8415 30.5279 36.0416 30.6574 36.143C30.7192 36.1812 30.8118 36.2384 30.9484 36.2588C30.9484 36.2588 30.6552 36.355 30.3665 36.0272C30.2277 36.2189 30.1258 36.4547 30.1854 36.7049C30.245 36.9551 30.4481 37.1447 30.6893 37.2723C30.8995 37.3809 31.1108 37.3835 31.3341 37.4361C31.7128 37.4781 32.0645 37.738 32.175 37.8704C32.4519 38.1481 32.9184 38.1164 33.133 37.8009C33.3194 37.8094 33.5069 37.7118 33.6267 37.5511C33.7465 37.3904 33.7487 37.1784 33.7069 37.0032C33.9216 36.6877 33.7894 36.2433 33.4307 36.0643C33.2573 35.9998 32.8867 35.7708 32.7226 35.4133C32.6191 35.2 32.5465 35.0058 32.3493 34.8412C32.2149 34.6088 31.9489 34.4871 31.6936 34.5214Z" fill="#0B9032"/>
<path d="M30.6364 35.1698C30.5925 35.2067 30.5735 35.2376 30.5296 35.2745C30.5106 35.3055 30.4917 35.3364 30.4727 35.3674C30.4418 35.3483 30.4418 35.3483 30.4169 35.3542C30.1627 35.2825 29.9384 35.336 29.7319 35.4644C29.6631 35.5073 29.5764 35.475 29.5586 35.4L29.5358 35.1939C29.5239 35.1438 29.5618 35.0819 29.6117 35.0701C29.8859 35.0048 30.166 34.9645 30.457 35.0803C30.5188 35.1185 30.5805 35.1566 30.6364 35.1698Z" fill="#0B9032"/>
<path d="M12.8951 26.1482C10.4513 25.6196 11.5767 21.3858 13.5288 23.1683C16.0177 22.3377 15.3388 26.6767 12.8951 26.1482Z" fill="#97C230"/>
<path d="M13.5251 22.9312C13.5251 22.9312 13.5322 22.8502 13.5582 22.7382C13.5842 22.6263 13.6292 22.4834 13.736 22.3786C13.7988 22.3108 13.8676 22.268 13.9424 22.2502C13.9674 22.2442 14.0172 22.2324 14.0421 22.2264C14.0671 22.2205 14.1169 22.2086 14.1418 22.2027C14.1917 22.1908 14.2475 22.204 14.2724 22.198C14.2974 22.1921 14.3282 22.2112 14.3282 22.2112C14.409 22.2184 14.4518 22.2875 14.4388 22.3435C14.4317 22.4245 14.3629 22.4673 14.3071 22.4542C14.3071 22.4542 14.3071 22.4542 14.2822 22.4601L14.2572 22.466C14.2572 22.466 14.2572 22.466 14.2263 22.4469C14.2014 22.4529 14.1705 22.4338 14.1207 22.4457C14.0958 22.4516 14.0649 22.4325 14.0649 22.4325C14.0399 22.4385 14.015 22.4444 13.9901 22.4503C13.9402 22.4622 13.8904 22.4741 13.8465 22.511C13.7587 22.5847 13.7018 22.6776 13.6698 22.7645C13.6378 22.8515 13.6248 22.9074 13.6248 22.9074C13.6308 22.9325 13.5869 22.9694 13.556 22.9503C13.537 22.9812 13.5311 22.9562 13.5251 22.9312Z" fill="#0B9032"/>
<path d="M14.3628 24.8998C14.3379 24.9057 14.288 24.9176 14.2571 24.8985C14.2013 24.8853 14.1835 24.8103 14.1965 24.7543C14.4951 24.128 14.2681 23.8383 14.2621 23.8133C14.2253 23.7692 14.2383 23.7132 14.2822 23.6763C14.3261 23.6394 14.3819 23.6526 14.4188 23.6967C14.4247 23.7217 14.7314 24.1246 14.3818 24.8688C14.4067 24.8629 14.3877 24.8938 14.3628 24.8998Z" fill="white"/>
<path d="M14.1871 25.0473C14.2239 25.0914 14.2169 25.1724 14.1421 25.1902C14.0982 25.2271 14.0175 25.2199 13.9996 25.1449C13.9627 25.1007 13.9698 25.0197 14.0446 25.0019C14.0944 24.9901 14.1502 25.0032 14.1871 25.0473Z" fill="white"/>
<path d="M37.095 25.5679C37.0332 25.5297 36.9395 25.5785 36.9075 25.6654C36.9005 25.7464 36.8934 25.8274 36.8864 25.9084C36.8522 26.2074 37.2607 26.3745 37.4374 26.1209C37.4753 26.059 37.5192 26.0221 37.5631 25.9852C37.6011 25.9233 37.5832 25.8483 37.5214 25.8101L37.095 25.5679Z" fill="#97C230"/>
<path d="M37.651 24.6953C37.5714 24.582 37.4099 24.5676 37.3281 24.6664C37.2273 24.7962 37.1324 24.9509 37.0625 25.0998C37.0056 25.1926 37.0603 25.3118 37.153 25.3691L37.7278 25.6816C37.7587 25.7007 37.8086 25.6889 37.8584 25.677C37.9023 25.6401 37.9462 25.6032 37.9961 25.5913C38.0839 25.5176 38.1099 25.4056 38.0552 25.2864L37.651 24.6953Z" fill="#97C230"/>
<path d="M40.6361 25.1742C40.5933 25.1051 40.5505 25.036 40.5077 24.9669C40.4649 24.8977 40.3592 24.8965 40.3213 24.9584L40.0129 25.3226C39.975 25.3845 39.9929 25.4596 40.0546 25.4978C40.1164 25.5359 40.1722 25.5491 40.2091 25.5932C40.4811 25.7399 40.7824 25.4567 40.6361 25.1742Z" fill="#97C230"/>
<path d="M40.1892 24.5139C40.0846 24.4066 39.9491 24.2802 39.8007 24.2098C39.6771 24.1334 39.5395 24.2191 39.4945 24.362L39.3443 25.0587C39.3183 25.1707 39.3979 25.2839 39.5096 25.3102C39.5654 25.3234 39.6212 25.3365 39.677 25.3497C39.7079 25.3688 39.7577 25.3569 39.8016 25.32L40.2357 24.82C40.2617 24.7081 40.2628 24.6021 40.1892 24.5139Z" fill="#97C230"/>
<path d="M39.0892 23.8769C38.9028 23.8684 38.6914 23.8658 38.4422 23.9252C38.2178 23.9786 38.0184 24.0261 37.8309 24.1236C37.6873 24.1842 37.6483 24.3522 37.7339 24.4904L38.2296 25.2449C38.3152 25.3831 38.4577 25.4285 38.7129 25.3942C38.9622 25.3348 39.0749 25.2551 39.114 25.0872L39.3032 24.2225C39.3362 24.0296 39.2506 23.8913 39.0892 23.8769Z" fill="#97C230"/>
<path d="M45.8444 22.2684C46.1034 22.4711 46.1369 22.8333 46.0589 23.1691C46.0589 23.1691 45.6652 25.1665 43.9546 25.283C42.2189 25.4054 42.2159 23.291 43.6904 23.1779C44.6733 23.1025 44.9367 22.8811 45.1643 22.5096C45.328 22.312 45.4868 21.9834 45.8444 22.2684Z" fill="#E52415"/>
<path d="M45.2534 24.1012C45.2594 24.1263 45.2345 24.1322 45.2345 24.1322C44.5039 25.0465 43.4874 24.7597 43.4874 24.7597C43.4316 24.7466 43.3888 24.6774 43.4267 24.6155C43.4398 24.5595 43.5086 24.5167 43.5644 24.5299C43.5953 24.549 44.4384 24.7712 45.0931 23.9808C45.137 23.9439 45.1868 23.932 45.2486 23.9702C45.2605 24.0202 45.2665 24.0453 45.2534 24.1012Z" fill="white"/>
<path d="M45.4192 23.6916C45.475 23.7048 45.5178 23.7739 45.5048 23.8299C45.4918 23.8858 45.4479 23.9227 45.3672 23.9155C45.3114 23.9024 45.2745 23.8583 45.2816 23.7773C45.3195 23.7153 45.3634 23.6785 45.4192 23.6916Z" fill="white"/>
<path d="M46.0287 21.2726C46.0536 21.2667 46.0904 21.3108 46.0964 21.3358C46.1072 21.4919 46.0872 21.6289 45.9923 21.7836C46.0422 21.7718 46.1787 21.7921 46.2703 21.9554C46.3678 22.1437 46.4545 22.1759 46.597 22.2213C46.597 22.2213 46.4843 22.301 46.4095 22.3188C46.229 22.3354 46.0557 22.2709 45.9451 22.1386C45.9142 22.1195 45.9083 22.0945 45.8774 22.0754C45.717 21.9549 45.5924 21.9846 45.4927 22.0084C45.2933 22.0558 45.1139 21.9664 45.0484 21.6911C45.0484 21.6911 45.2716 21.7437 45.4591 21.6462C45.6466 21.5487 45.8509 21.6322 45.8688 21.7073C45.9197 21.5894 45.9208 21.4834 45.8661 21.3642C45.8542 21.3142 45.8732 21.2832 45.923 21.2714L46.0287 21.2726Z" fill="#0B9032"/>
<path d="M17.8778 30.038C17.8658 29.988 17.8729 29.907 17.9536 29.9142C18.0035 29.9023 18.0094 29.9273 18.0712 29.9655C18.1639 30.0228 18.2565 30.08 18.3562 30.0563C18.431 30.0385 18.4939 29.9706 18.5258 29.8837C18.5627 29.9278 18.5936 29.9469 18.6245 29.966C18.5616 30.0338 18.4987 30.1017 18.4917 30.1827C18.4906 30.2887 18.5643 30.3769 18.6379 30.4651C18.6688 30.4842 18.6997 30.5033 18.7116 30.5533C18.7295 30.6284 18.6547 30.6462 18.6049 30.658C18.6536 30.7522 18.7143 30.8964 18.5767 30.982C18.4639 31.0618 18.3404 30.9854 18.2727 30.9222C18.2098 30.9901 18.141 31.0329 18.0733 30.9697C18.0055 30.9065 18.0066 30.8005 18.0137 30.7195C18.0077 30.6945 18.0207 30.6385 18.0397 30.6075C18.0148 30.6135 17.9709 30.6504 17.946 30.6563C17.8712 30.6741 17.7465 30.7038 17.6848 30.6656C17.6171 30.6024 17.6241 30.5214 17.687 30.4536C17.5943 30.3963 17.5147 30.2831 17.5656 30.1652C17.6296 29.9913 17.7661 30.0117 17.8778 30.038Z" fill="#0B9032"/>
<path d="M19.6821 29.8728C20.0853 29.3537 19.5955 28.6243 19.5955 28.6243C19.5955 28.6243 18.7784 28.2901 18.3752 28.8091C17.8522 29.4888 19.1781 30.5215 19.6821 29.8728Z" fill="#97C230"/>
<path d="M19.2536 29.8426C19.2037 29.8545 19.1728 29.8354 19.136 29.7913C19.0992 29.7472 19.1371 29.6853 19.181 29.6484C19.181 29.6484 19.4124 29.514 19.3479 29.1327C19.336 29.0827 19.374 29.0208 19.4238 29.0089C19.4737 28.997 19.5354 29.0352 19.5473 29.0852C19.6226 29.6225 19.2975 29.8057 19.2536 29.8426C19.2785 29.8367 19.2536 29.8426 19.2536 29.8426Z" fill="white"/>
<path d="M5.2809 15.8521C5.36103 16.5204 5.81566 16.4386 5.81566 16.4386C5.82223 15.8025 5.96207 15.5048 6.01897 15.4119C6.03794 15.381 6.03794 15.381 6.03794 15.381C5.9144 15.3046 5.80984 15.1973 5.73019 15.0841C5.70527 15.09 5.70527 15.09 5.68034 15.096C5.23872 15.1218 5.03116 15.3563 4.94227 15.5361C5.12271 15.5196 5.27714 15.615 5.2809 15.8521Z" fill="#E52415"/>
<path d="M7.10342 14.5456C7.16786 14.9269 6.9034 15.2542 6.52354 15.3183C6.14369 15.3823 5.81697 15.1164 5.75253 14.7351C5.68809 14.3539 5.95256 14.0265 6.33241 13.9625C6.71823 13.9235 7.06987 14.1835 7.10342 14.5456Z" fill="#E52415"/>
<path d="M7.58085 13.4537C7.50072 12.7853 7.04609 12.8672 7.04609 12.8672C7.03952 13.5033 6.89968 13.801 6.84278 13.8938C6.82381 13.9248 6.82381 13.9248 6.82381 13.9248C6.94734 14.0011 7.05191 14.1084 7.13155 14.2217C7.15648 14.2157 7.15648 14.2157 7.18141 14.2098C7.62303 14.1839 7.83059 13.9494 7.91948 13.7696C7.73308 13.7612 7.60954 13.6848 7.58085 13.4537Z" fill="#E52415"/>
<path d="M6.06935 14.739C6.04443 14.7449 6.04443 14.7449 6.0195 14.7508C5.96369 14.7377 5.92089 14.6686 5.9339 14.6126C5.99896 14.3327 6.22439 14.1733 6.51646 14.183C6.57227 14.1962 6.60911 14.2403 6.62102 14.2903C6.60801 14.3463 6.56412 14.3832 6.51426 14.3951C6.27205 14.3734 6.18317 14.5532 6.1631 14.6902C6.14413 14.7212 6.09428 14.733 6.06935 14.739Z" fill="#E52415"/>
<path d="M28.111 37.7276C28.3407 38.3604 27.898 38.4922 27.898 38.4922C27.6055 37.9273 27.3465 37.7246 27.2538 37.6674C27.2229 37.6483 27.2229 37.6483 27.2229 37.6483C27.2988 37.5245 27.3438 37.3815 27.3639 37.2446C27.3888 37.2386 27.3888 37.2386 27.4137 37.2327C27.8196 37.0567 28.1106 37.1725 28.2709 37.293C28.1024 37.3595 28.0325 37.5084 28.111 37.7276Z" fill="#E52415"/>
<path d="M25.8954 37.3827C26.0097 37.752 26.3933 37.9251 26.7612 37.811C27.1292 37.697 27.301 37.3124 27.1867 36.943C27.0724 36.5736 26.6888 36.4006 26.3208 36.5146C25.9588 36.6537 25.787 37.0383 25.8954 37.3827Z" fill="#E52415"/>
<path d="M24.977 36.6232C24.7473 35.9904 25.1901 35.8586 25.1901 35.8586C25.4826 36.4235 25.7416 36.6262 25.8342 36.6834C25.8651 36.7025 25.8651 36.7025 25.8651 36.7025C25.7892 36.8263 25.7443 36.9693 25.7242 37.1062C25.6993 37.1122 25.6993 37.1122 25.6743 37.1181C25.2685 37.2941 24.9775 37.1783 24.8171 37.0578C24.9797 36.9662 25.0556 36.8424 24.977 36.6232Z" fill="#E52415"/>
<path d="M26.9365 37.1083C26.9614 37.1024 26.9614 37.1024 26.9863 37.0965C27.0302 37.0596 27.0432 37.0036 27.0064 36.9595C26.8162 36.7139 26.5431 36.6732 26.2868 36.8136C26.2429 36.8505 26.2299 36.9064 26.2418 36.9565C26.2787 37.0006 26.3345 37.0137 26.3843 37.0019C26.5908 36.8734 26.7512 36.9938 26.8249 37.082C26.8557 37.1011 26.8866 37.1202 26.9365 37.1083Z" fill="#E52415"/>
<path d="M50.3605 18.3375C50.1991 18.3231 50.1053 18.3719 50.0603 18.5148C50.0224 18.5767 50.0403 18.6518 50.0581 18.7268C50.076 18.8019 50.1437 18.8651 50.2304 18.8973C50.1177 18.977 50.0608 19.0699 50.0966 19.22C50.1263 19.3451 50.225 19.4274 50.3555 19.4227C50.2488 19.5275 50.2537 19.6585 50.3084 19.7777C50.388 19.8909 50.5056 19.9422 50.6492 19.8816C50.5982 19.9995 50.628 20.1246 50.7207 20.1818L50.7516 20.2009L50.7824 20.22C50.8751 20.2773 50.9808 20.2786 51.0935 20.1988C51.0794 20.3608 51.1531 20.449 51.2956 20.4944C51.4381 20.5398 51.5318 20.4911 51.6267 20.3363C51.6873 20.4805 51.78 20.5377 51.9046 20.508C52.0352 20.5034 52.123 20.4296 52.168 20.2867C52.2357 20.3499 52.2726 20.394 52.3782 20.3953C52.459 20.4025 52.5337 20.3847 52.5717 20.3228C52.6844 20.243 52.7104 20.1311 52.6497 19.9869C52.6996 19.975 52.7245 19.9691 52.7744 19.9572C52.9429 19.8907 52.9819 19.7227 52.8465 19.5963C52.7419 19.4891 52.6243 19.4377 52.5068 19.3864C52.2348 19.2397 51.9628 19.0929 51.7346 18.9093C51.4816 18.7316 51.2476 18.5229 51.0384 18.3083C50.9398 18.226 50.8602 18.1128 50.7366 18.0365C50.5882 17.9661 50.4256 18.0577 50.4115 18.2196C50.3676 18.2565 50.3546 18.3125 50.3605 18.3375Z" fill="#97C230"/>
<path d="M51.7547 19.9886C51.7357 20.0195 51.6859 20.0314 51.655 20.0123C50.8677 19.8032 50.631 19.2514 50.625 19.2264C50.6131 19.1764 50.6261 19.1204 50.6949 19.0776C50.7448 19.0657 50.8006 19.0789 50.8374 19.123C50.8434 19.148 51.0314 19.6056 51.732 19.7825C51.7878 19.7956 51.8306 19.8647 51.8116 19.8957C51.7737 19.9576 51.7796 19.9826 51.7547 19.9886Z" fill="white"/>
<path d="M20.0928 39.4518C20.2342 39.6032 20.3898 39.5926 20.5204 39.5879C20.626 39.5892 20.7008 39.5714 20.7685 39.6346C19.7909 40.3962 18.9694 40.486 18.3648 40.0483C18.297 39.9851 18.2044 39.9279 18.1616 39.8588C18.1616 39.8588 18.1616 39.8588 18.1556 39.8337C18.1556 39.8337 18.1556 39.8337 18.1497 39.8087C17.584 39.2031 17.5549 38.4169 18.2236 37.4645C18.2355 37.5145 18.2664 37.5336 18.3033 37.5777C18.4447 37.7291 18.6002 37.7185 18.7557 37.7079C18.8863 37.7032 18.967 37.7105 19.0348 37.7737C19.1084 37.8619 19.1014 37.9429 19.1003 38.0489C19.0802 38.1859 19.0661 38.3479 19.2075 38.4993C19.3489 38.6507 19.5045 38.6401 19.6351 38.6354C19.7656 38.6308 19.8404 38.6129 19.9141 38.7012C19.9878 38.7894 19.9807 38.8704 19.9856 39.0014C19.9655 39.1384 19.9514 39.3004 20.0928 39.4518Z" fill="#97C230"/>
<path d="M21.2956 36.7594C21.6033 37.0562 22.4696 38.0397 21.3582 39.124C21.2075 39.2656 21.0758 39.3763 20.9441 39.487C20.8087 39.3606 20.6532 39.3712 20.5226 39.3758C20.392 39.3805 20.3172 39.3983 20.2435 39.3101C20.1698 39.2219 20.1769 39.1409 20.172 39.0098C20.1921 38.8729 20.2062 38.7109 20.0648 38.5595C19.9234 38.4081 19.7679 38.4186 19.6373 38.4233C19.5067 38.428 19.4259 38.4207 19.3582 38.3576C19.2845 38.2693 19.2916 38.1883 19.2867 38.0573C19.3068 37.9203 19.3209 37.7583 19.1795 37.6069C19.0381 37.4555 18.8825 37.4661 18.727 37.4767C18.5964 37.4814 18.5217 37.4992 18.448 37.411C18.4111 37.3669 18.3683 37.2977 18.3813 37.2418C18.526 37.0751 18.6897 36.8775 18.8843 36.699C19.0078 36.7753 19.1324 36.7456 19.2321 36.7219C19.3568 36.6922 19.4126 36.7054 19.4743 36.7435C19.5421 36.8067 19.5291 36.8627 19.503 36.9747C19.477 37.0866 19.438 37.2545 19.5734 37.3809C19.7089 37.5073 19.8584 37.4717 19.989 37.467C20.1137 37.4374 20.1695 37.4505 20.2312 37.4887C20.299 37.5519 20.286 37.6079 20.2599 37.7198C20.2339 37.8318 20.1949 37.9997 20.3303 38.1261C20.4658 38.2525 20.6213 38.2419 20.7459 38.2122C20.8706 38.1825 20.9264 38.1957 20.9882 38.2338C21.025 38.2779 21.0748 38.2661 21.1187 38.2292C21.1187 38.2292 21.1187 38.2292 21.1437 38.2232C21.1626 38.1923 21.1757 38.1363 21.1388 38.0922C21.0034 37.9658 20.8478 37.9764 20.7232 38.0061C20.5986 38.0358 20.5428 38.0226 20.481 37.9844C20.4133 37.9213 20.4263 37.8653 20.4523 37.7533C20.4783 37.6414 20.5174 37.4734 20.3819 37.3471C20.2465 37.2207 20.0909 37.2313 19.9663 37.2609C19.8417 37.2906 19.7859 37.2775 19.7241 37.2393C19.6813 37.1702 19.6943 37.1142 19.6954 37.0082C19.7214 36.8962 19.7605 36.7283 19.625 36.6019C19.4895 36.4755 19.34 36.5111 19.2094 36.5158C19.1346 36.5336 19.0848 36.5455 19.029 36.5323C20.0955 35.591 21.0127 36.4565 21.2956 36.7594Z" fill="#97C230"/>
<path d="M22.593 35.1286C22.224 35.3486 22.0354 35.5522 22.0354 35.5522L22.0962 34.4801C22.0962 34.4801 21.796 34.6574 21.5245 35.0657C21.3099 35.3812 21.2329 35.6111 21.2329 35.6111L20.8347 35.0449C20.8347 35.0449 20.6699 35.3485 20.5967 35.8154C20.5897 35.8964 20.5767 35.9524 20.5637 36.0084C20.8487 36.0991 21.1017 36.2768 21.3298 36.4605C21.5021 36.631 21.6744 36.8015 21.7968 36.9838C21.9133 37.1412 21.9799 37.3104 22.0276 37.5105C22.0775 37.4987 22.1582 37.5059 22.233 37.4881C22.6936 37.4313 22.9938 37.254 22.9938 37.254L22.4449 36.8295C22.4449 36.8295 22.6633 36.7511 22.9825 36.5429C23.3954 36.2859 23.5911 36.0014 23.5911 36.0014L22.5155 36.0195C22.5344 35.9886 22.729 35.8101 22.9376 35.4695C23.1653 35.0981 23.1924 34.8801 23.1924 34.8801C23.1924 34.8801 22.9561 34.8835 22.593 35.1286Z" fill="#0B9032"/>
<path d="M22.6239 21.3199C22.4088 21.0803 22.1498 20.8776 21.9098 20.6439C21.5902 20.297 21.2467 19.85 21.2083 19.3568C21.1926 19.0697 21.2576 18.7898 21.4094 18.5422C21.4852 18.4184 21.5433 18.2195 21.5026 17.9383C21.5026 17.9383 21.4929 17.6763 21.4062 17.644C21.3195 17.6118 21.1131 17.7403 21.0442 17.7831C21.0692 17.7772 21.0822 17.7212 21.0822 17.7212C21.1011 17.6902 21.1201 17.6593 21.1391 17.6283C21.177 17.5664 21.209 17.4795 21.2161 17.3985C21.2172 17.2924 21.1397 16.9672 21.0032 16.9468C20.9473 16.9337 20.8953 17.1576 20.8395 17.1444C20.8086 17.1253 20.8596 17.0074 20.8476 16.9574C20.8547 16.8764 20.8498 16.7454 20.7761 16.6572C20.6905 16.5189 20.5882 16.1996 20.4267 16.1851C20.2901 16.1648 20.2321 16.3637 20.1752 16.4565C20.0994 16.5804 20.0294 16.7292 20.0094 16.8662C20.0023 16.9472 20.0392 16.9913 20.0511 17.0413C20.057 17.0663 20.1058 17.1605 20.0559 17.1724C20.0061 17.1842 19.9525 16.959 19.9026 16.9709C19.8278 16.9887 19.7888 17.1567 19.7308 17.3555C19.6858 17.4984 19.7156 17.6235 19.8202 17.7308L19.9925 17.9013C19.9675 17.9073 19.7134 17.8356 19.6755 17.8975C19.6375 17.9594 19.593 18.6574 20.156 18.92C20.6632 19.1694 21.0186 19.6664 21.0186 19.6664C21.1042 19.8046 21.1838 19.9179 21.2694 20.0561C21.1827 20.0239 21.0711 19.9976 20.9476 19.9212C20.7005 19.7686 20.6089 19.6053 20.3608 19.5586C20.1375 19.506 20.1245 19.562 20.1115 19.618C20.0985 19.674 20.1781 19.7872 20.1283 19.7991C20.0844 19.836 20.0107 19.7477 19.924 19.7155C19.8064 19.6642 19.6628 19.7248 19.6617 19.8308C19.6736 19.8809 19.7354 19.919 19.7354 19.919C19.7354 19.919 19.2071 19.9127 19.2298 20.1188C19.2287 20.2248 19.5078 20.2905 19.7321 20.2371C19.7321 20.2371 19.5755 20.3537 19.6183 20.4228C19.7218 20.6362 20.1369 20.1672 20.1916 20.2863C20.2035 20.3364 20.1157 20.4101 20.1336 20.4852C20.1634 20.6103 20.2702 20.5056 20.5763 20.3534C20.6451 20.3105 20.714 20.2677 20.7887 20.2499C20.8576 20.2071 20.9074 20.1952 20.9822 20.1774C21.1009 20.1227 21.2434 20.1681 21.361 20.2194C21.5154 20.3148 21.6129 20.5031 21.7234 20.6354C21.8459 20.8178 22.0122 20.9633 22.1785 21.1087C22.2403 21.1469 22.2831 21.216 22.3449 21.2542C22.4066 21.2924 22.4494 21.3615 22.5112 21.3997C22.5421 21.4188 22.567 21.4128 22.592 21.4069C22.6418 21.395 22.6797 21.3331 22.6678 21.2831C22.6548 21.339 22.6489 21.314 22.6239 21.3199Z" fill="#0B9032"/>
<path d="M47.1149 33.4669C47.3474 33.2265 47.5918 33.0361 47.8243 32.7956C48.1386 32.4564 48.5039 31.9993 48.5213 31.5192C48.5305 31.2262 48.465 30.951 48.3246 30.6935C48.2699 30.5744 48.1973 30.3801 48.2375 30.1062C48.2375 30.1062 48.2527 29.8382 48.3524 29.8144C48.4521 29.7907 48.6434 29.9302 48.7241 29.9374C48.7181 29.9124 48.6872 29.8933 48.6813 29.8683C48.6504 29.8492 48.6444 29.8242 48.6076 29.7801C48.5648 29.711 48.5469 29.6359 48.554 29.5549C48.5551 29.4489 48.6331 29.113 48.7637 29.1084C48.8136 29.0965 48.8672 29.3217 48.9171 29.3098C48.9669 29.298 48.9122 29.1788 48.9003 29.1288C48.9073 29.0478 48.9025 28.9167 48.9594 28.8238C49.0353 28.7 49.1382 28.3582 49.2938 28.3476C49.4244 28.343 49.4969 28.5372 49.5457 28.6314C49.6064 28.7755 49.7109 28.8828 49.6968 29.0448C49.6898 29.1258 49.6708 29.1568 49.6638 29.2378C49.6448 29.2687 49.6128 29.3557 49.6437 29.3748C49.6995 29.3879 49.7266 29.1699 49.8074 29.1772C49.8881 29.1844 49.9298 29.3595 49.9775 29.5597C50.0073 29.6848 49.9872 29.8218 49.8804 29.9265L49.7108 30.0991C49.7357 30.0931 49.985 30.0338 50.0527 30.097C50.0896 30.1411 50.1258 30.8463 49.5573 31.1139C49.0637 31.3636 48.7044 31.8458 48.7044 31.8458C48.6285 31.9696 48.5277 32.0994 48.4518 32.2232C48.5266 32.2054 48.6453 32.1507 48.7889 32.09C49.0452 31.9497 49.1341 31.7699 49.3584 31.7165C49.5828 31.6631 49.5947 31.7131 49.6125 31.7882C49.6245 31.8382 49.5486 31.962 49.6044 31.9752C49.6662 32.0133 49.7231 31.9205 49.8228 31.8967C49.9474 31.8671 50.0899 31.9124 50.0829 31.9934C50.0699 32.0494 50.001 32.0922 50.001 32.0922C50.001 32.0922 50.5293 32.0986 50.5212 32.2856C50.5141 32.3666 50.2459 32.457 50.0227 32.4044C50.0227 32.4044 50.1831 32.5248 50.1451 32.5867C50.0373 32.7975 49.638 32.3373 49.5621 32.4612C49.5491 32.5171 49.6417 32.5744 49.6347 32.6554C49.6146 32.7924 49.4851 32.691 49.1822 32.5252C49.1205 32.487 49.0587 32.4488 48.9969 32.4106C48.9351 32.3725 48.8793 32.3593 48.8176 32.3212C48.7 32.2698 48.5504 32.3055 48.4567 32.3542C48.2941 32.4458 48.2052 32.6256 48.0855 32.7863C47.9408 32.953 47.7961 33.1196 47.6454 33.2612C47.5766 33.3041 47.5386 33.366 47.4698 33.4088C47.401 33.4516 47.3631 33.5136 47.2942 33.5564C47.2693 33.5623 47.2444 33.5682 47.2195 33.5742C47.1637 33.561 47.1268 33.5169 47.1398 33.461C47.0959 33.4978 47.0959 33.4978 47.1149 33.4669Z" fill="#0B9032"/>
<path d="M54.1621 31.8682C54.1133 31.7741 54.1334 31.6371 54.2271 31.5883L56.5351 30.2192C56.6288 30.1704 56.7654 30.1908 56.8141 30.2849C56.8629 30.3791 56.8428 30.516 56.7491 30.5648L54.4411 31.934C54.3533 32.0078 54.2357 31.9564 54.1621 31.8682Z" fill="#97C230"/>
<path d="M57.3596 31.0275C56.9277 31.3154 56.3696 31.1839 56.0819 30.75C55.7942 30.3162 55.9243 29.7564 56.3562 29.4685C56.7881 29.1806 57.3463 29.3121 57.6339 29.7459C57.9157 30.1548 57.7915 30.7396 57.3596 31.0275Z" fill="#E52415"/>
<path d="M57.2966 31.0954L56.2814 29.4864C56.2445 29.4423 56.2516 29.3613 56.3264 29.3435C56.3702 29.3066 56.451 29.3138 56.4689 29.3889L57.4841 30.9979C57.521 31.042 57.5139 31.123 57.4392 31.1408C57.3893 31.1526 57.3335 31.1395 57.2966 31.0954Z" fill="#E52415"/>
<path d="M56.5335 29.7701C56.5703 29.8142 56.676 29.8154 56.7887 29.7357C56.9074 29.681 56.9643 29.5882 56.9523 29.5381C56.9155 29.494 56.8098 29.4927 56.6971 29.5724C56.5784 29.6271 56.5215 29.72 56.5335 29.7701Z" fill="white"/>
<path d="M12.8749 17.8775C13.5083 18.5463 13.4724 19.6124 12.782 20.2527C12.1165 20.887 11.0539 20.8492 10.4146 20.1554C9.77525 19.4616 9.81709 18.4205 10.5075 17.7802C11.1979 17.1399 12.2415 17.2087 12.8749 17.8775Z" fill="#E52415"/>
<path d="M12.8749 17.8775C13.5083 18.5463 13.4724 19.6124 12.782 20.2527C12.1165 20.887 11.0539 20.8492 10.4146 20.1554C9.77525 19.4616 9.81709 18.4205 10.5075 17.7802C11.1979 17.1399 12.2415 17.2087 12.8749 17.8775Z" stroke="#E7302D" stroke-width="2.0656" stroke-linecap="round" stroke-linejoin="round"/>
<path d="M13.3109 20.8142C13.3109 20.8142 12.903 19.986 13.2173 19.6468L12.5725 19.483L12.0343 20.4308L12.3312 20.5716C12.3063 20.5775 12.8059 20.3528 13.3109 20.8142Z" fill="#E52415"/>
<path d="M13.3109 20.8142C13.3109 20.8142 12.903 19.986 13.2173 19.6468L12.5725 19.483L12.0343 20.4308L12.3312 20.5716C12.3063 20.5775 12.8059 20.3528 13.3109 20.8142Z" stroke="#E62C20" stroke-width="2.0656" stroke-linecap="round" stroke-linejoin="round"/>
<path d="M10.3932 17.4109C10.3932 17.4109 11.1405 16.6777 10.0032 15.4415C9.99727 15.4164 9.66556 16.2357 10.3932 17.4109Z" fill="#0B9032"/>
<path d="M10.1928 17.5644C10.1928 17.5644 8.78551 18.4018 7.36011 16.1766C7.36011 16.1766 8.69203 16.0181 10.1928 17.5644Z" fill="#0B9032"/>
<path d="M11.4464 20.1741C11.4215 20.1801 11.4155 20.155 11.3906 20.161C10.3964 19.5252 10.5748 18.5045 10.5688 18.4795C10.5818 18.4235 10.6257 18.3866 10.6815 18.3998C10.7373 18.4129 10.7742 18.457 10.7612 18.513C10.7422 18.5439 10.6088 19.4218 11.4795 19.9812C11.5413 20.0193 11.5532 20.0694 11.5153 20.1313C11.5272 20.1813 11.4773 20.1932 11.4464 20.1741Z" fill="white"/>
<path d="M11.874 20.3104C11.861 20.3663 11.8171 20.4032 11.7672 20.4151C11.7114 20.4019 11.6746 20.3578 11.6876 20.3019C11.7006 20.2459 11.7445 20.209 11.7943 20.1971C11.8442 20.1853 11.887 20.2544 11.874 20.3104Z" fill="white"/>
<path d="M15.5652 38.4676L15.2304 38.3887C15.1187 38.3624 15.0391 38.2492 15.0651 38.1372L15.1432 37.8014C15.1692 37.6894 15.2819 37.6097 15.3935 37.636L15.7284 37.7149C15.84 37.7412 15.9197 37.8544 15.8936 37.9664L15.8156 38.3022C15.7896 38.4142 15.6768 38.4939 15.5652 38.4676Z" fill="#E52415"/>
<path d="M11.3798 33.8326L11.565 35.1633C11.5709 35.1884 11.552 35.2193 11.527 35.2252C11.5021 35.2312 11.5021 35.2312 11.4772 35.2371C11.4273 35.249 11.3905 35.2049 11.3845 35.1799L11.1994 33.8491C11.1874 33.7991 11.2313 33.7622 11.2563 33.7562C11.3121 33.7694 11.3679 33.7825 11.3798 33.8326ZM11.5926 35.5005C11.5736 35.5314 11.5237 35.5433 11.4679 35.5302C11.437 35.5111 11.4251 35.461 11.4381 35.405C11.4571 35.3741 11.507 35.3622 11.5628 35.3754C11.6245 35.4135 11.6365 35.4636 11.5926 35.5005ZM11.0852 32.2635L10.3445 32.3606C10.2447 32.3843 10.1629 32.4831 10.1867 32.5832C10.2106 32.6833 10.3092 32.7656 10.4089 32.7418L10.4495 33.023C10.4614 33.073 10.4544 33.154 10.4105 33.1909L10.1817 33.6684C10.1557 33.7803 10.1237 33.8673 10.1535 33.9924L10.4438 35.9855C10.4605 36.1666 10.6209 36.2871 10.7954 36.2455L11.1753 36.1815L11.3557 36.165L11.7106 36.1069C11.8911 36.0904 12.0108 35.9297 11.9691 35.7545L11.6789 33.7614C11.6551 33.6613 11.6313 33.5612 11.5576 33.473L11.2011 33.082C11.1642 33.0379 11.1214 32.9687 11.1344 32.9128L11.1057 32.6816C11.2054 32.6579 11.2873 32.5591 11.2634 32.459L11.2575 32.434C11.2895 32.3471 11.1909 32.2648 11.0852 32.2635Z" fill="#97C230"/>
<path d="M12.5666 12.8217C12.3943 12.6512 12.1521 12.6296 11.9825 12.8022C11.9635 12.8331 11.9386 12.8391 11.9196 12.87C11.7652 12.7746 11.5598 12.7971 11.4032 12.9137C11.2526 13.0553 11.2195 13.2482 11.2861 13.4175C11.2612 13.4234 11.2422 13.4543 11.2173 13.4603C11.0417 13.6078 11.0265 13.8759 11.1739 14.0523C11.079 14.2071 11.0769 14.4191 11.2183 14.5705C11.3656 14.7469 11.6577 14.7567 11.8333 14.6091C12.1714 14.37 12.4862 14.5858 12.6526 14.7313C12.7203 14.7945 12.8509 14.7899 12.9387 14.7161L12.9826 14.6792L13.0265 14.6423C13.1143 14.5685 13.1154 14.4625 13.0666 14.3683C12.9442 14.186 12.786 13.8535 13.0504 13.5261C13.226 13.3786 13.2353 13.0855 13.0879 12.9091C12.9275 12.7887 12.7292 12.7301 12.5666 12.8217Z" fill="#0B9032"/>
<path d="M16.3843 12.1507C16.4032 12.1197 16.3913 12.0697 16.3545 12.0256C16.1881 11.8801 15.9839 11.7965 15.7476 11.7999C15.5113 11.8033 15.293 11.8817 15.1114 12.0043C15.0675 12.0412 15.0794 12.0912 15.0854 12.1162L15.6716 13.14C15.6775 13.165 15.7274 13.1531 15.7274 13.1531L16.3843 12.1507Z" fill="#97C230"/>
<path d="M15.8923 17.0534C15.9421 17.0416 15.9611 17.0106 15.9801 16.9796C16.0663 16.4568 16.023 15.8325 15.9466 15.4012C16.4993 16.0628 17.4004 16.0862 17.4253 16.0803C17.4811 16.0934 17.5191 16.0315 17.5321 15.9755C17.5451 15.9196 17.4833 15.8814 17.4275 15.8682C17.4275 15.8682 16.2034 15.816 15.8286 14.7948C15.8167 14.7448 15.7549 14.7066 15.705 14.7185C15.6552 14.7303 15.6172 14.7923 15.6292 14.8423C15.6292 14.8423 15.9092 16.0183 15.7568 16.927C15.7438 16.983 15.7806 17.0271 15.8365 17.0403C15.8673 17.0594 15.8923 17.0534 15.8923 17.0534Z" fill="#0B9032"/>
<path d="M16.9803 16.4242C17.0638 16.7745 17.4094 17.0095 17.7893 16.9455C18.1383 16.8624 18.3718 16.5159 18.3074 16.1347C18.224 15.7844 17.8783 15.5494 17.4985 15.6134C17.1246 15.7025 16.891 16.0489 16.9803 16.4242Z" fill="#E52415"/>
<path d="M17.9584 16.2177C17.9584 16.2177 17.9833 16.2118 17.9584 16.2177C18.0272 16.1749 18.0652 16.113 18.0283 16.0689C17.8761 15.7614 17.59 15.7766 17.5651 15.7826C17.5152 15.7944 17.4713 15.8313 17.4643 15.9123C17.4762 15.9624 17.513 16.0065 17.5688 16.0196C17.5938 16.0137 17.7243 16.009 17.8219 16.1973C17.8777 16.2105 17.9086 16.2296 17.9584 16.2177Z" fill="#FFFCFA"/>
<path d="M15.0745 17.3804C15.0642 17.7794 15.3719 18.0763 15.7697 18.0873C16.1674 18.0984 16.4627 17.7901 16.4731 17.3911C16.4834 16.992 16.1757 16.6951 15.7779 16.6841C15.3802 16.673 15.0599 16.9873 15.0745 17.3804Z" fill="#E52415"/>
<path d="M16.131 17.3931C16.1809 17.3813 16.2188 17.3194 16.2069 17.2693C16.1235 16.919 15.8255 16.8842 15.8006 16.8902C15.7448 16.877 15.7009 16.9139 15.6879 16.9699C15.6748 17.0259 15.7117 17.07 15.7675 17.0831C15.7924 17.0772 15.9349 17.1226 15.9826 17.3227C16.0194 17.3668 16.0752 17.38 16.131 17.3931Z" fill="#FFFCFA"/>
<path d="M15.7608 14.7316C15.7608 14.7316 15.1778 14.6061 14.961 15.1336C14.7442 15.6611 14.2207 15.7858 14.2207 15.7858C14.2207 15.7858 15.0297 16.307 15.6155 15.5594C16.1195 14.9106 15.7608 14.7316 15.7608 14.7316Z" fill="#0B9032"/>
<path d="M37.6879 30.1594L37.2891 30.2544C37.5356 29.852 37.7194 29.5174 37.8213 29.2816C37.7525 29.3244 37.6836 29.3673 37.5839 29.391C37.3845 29.4385 37.2171 29.399 37.0627 29.3036C36.9082 29.2082 36.8226 29.0699 36.775 28.8698C36.7214 28.6446 36.7544 28.4516 36.8493 28.2968C36.9441 28.1421 37.1067 28.0505 37.331 27.9971C37.5554 27.9436 37.7477 27.9772 37.9021 28.0726C38.0566 28.168 38.1541 28.3563 38.2017 28.5565C38.2554 28.7817 38.2152 29.0556 38.1063 29.3724C37.9984 29.5831 37.8716 29.8248 37.6879 30.1594ZM37.3657 28.2532C37.241 28.2829 37.1224 28.3376 37.0904 28.4245C37.0335 28.5174 37.0324 28.6234 37.0681 28.7735C37.0979 28.8986 37.1716 28.9868 37.2643 29.0441C37.3569 29.1013 37.4685 29.1276 37.5932 29.098C37.7178 29.0683 37.8056 28.9945 37.8625 28.9016C37.9194 28.8088 37.9205 28.7028 37.8907 28.5777C37.8609 28.4526 37.8122 28.3584 37.7195 28.3011C37.6019 28.2498 37.4903 28.2235 37.3657 28.2532Z" fill="#020202"/>
<path d="M25.6182 31.1297L25.208 31.7297L25.1186 31.3544L25.5159 30.8104L25.8399 30.7332L26.3404 32.8349L26.0412 32.9062L25.6182 31.1297Z" fill="#020202"/>
<path d="M35.3643 28.809L34.9541 29.4091L34.8647 29.0337L35.262 28.4897L35.586 28.4125L36.0865 30.5143L35.7873 30.5855L35.3643 28.809Z" fill="#020202"/>
<path d="M15.5334 33.1345C15.7079 33.0929 15.8135 33.0942 15.9192 33.0955C16.0558 33.1158 16.1484 33.1731 16.2091 33.3173C16.3006 33.4806 16.4101 33.7189 16.4816 34.0191C16.6067 34.5446 16.6093 34.8877 16.5145 35.0424C16.4576 35.1353 16.295 35.2269 16.0458 35.2862C15.7965 35.3456 15.635 35.3312 15.5174 35.2798C15.363 35.1844 15.2108 34.877 15.0857 34.3515C15.0142 34.0513 14.9795 33.7951 15.0126 33.6022C15.0327 33.4652 15.0836 33.3473 15.1714 33.2735C15.2652 33.2248 15.3838 33.1701 15.5334 33.1345ZM15.5989 33.4097C15.4743 33.4394 15.3746 33.4631 15.3556 33.4941C15.2868 33.5369 15.2667 33.6739 15.2954 33.905C15.3133 33.9801 15.3431 34.1052 15.3967 34.3303C15.492 34.7307 15.5765 34.9749 15.6692 35.0322C15.731 35.0704 15.8366 35.0716 16.0111 35.0301C16.1856 34.9886 16.2793 34.9398 16.3173 34.8779C16.3493 34.7909 16.3395 34.5289 16.2442 34.1285C16.1906 33.9034 16.1608 33.7783 16.1429 33.7032C16.0703 33.509 15.9907 33.3957 15.9289 33.3576C15.8292 33.3813 15.7485 33.3741 15.5989 33.4097Z" fill="#020202"/>
<path d="M17.5524 32.6538C17.7269 32.6122 17.8326 32.6135 17.9382 32.6148C18.0499 32.6411 18.1674 32.6924 18.2281 32.8366C18.3197 32.9998 18.4291 33.2382 18.5006 33.5384C18.6257 34.0639 18.6284 34.4069 18.5335 34.5617C18.4766 34.6546 18.3141 34.7462 18.0648 34.8055C17.8155 34.8649 17.6541 34.8505 17.5365 34.7991C17.3821 34.7037 17.2298 34.3962 17.1047 33.8708C17.0332 33.5706 16.9986 33.3144 17.0316 33.1215C17.0517 32.9845 17.1027 32.8666 17.1905 32.7928C17.2842 32.7441 17.4029 32.6894 17.5524 32.6538ZM17.618 32.929C17.4933 32.9587 17.3936 32.9824 17.3747 33.0134C17.3058 33.0562 17.2858 33.1932 17.3145 33.4243C17.3323 33.4993 17.3621 33.6244 17.4158 33.8496C17.5111 34.25 17.5956 34.4942 17.6882 34.5515C17.75 34.5897 17.8557 34.5909 18.0301 34.5494C18.2046 34.5078 18.2984 34.4591 18.3363 34.3972C18.3683 34.3102 18.3586 34.0482 18.2633 33.6478C18.2096 33.4226 18.1798 33.2975 18.162 33.2225C18.0894 33.0282 18.0097 32.915 17.948 32.8768C17.8483 32.9006 17.7426 32.8993 17.618 32.929Z" fill="#020202"/>
<path d="M19.5214 32.1849C19.6959 32.1433 19.8016 32.1446 19.9072 32.1459C20.0438 32.1663 20.1364 32.2235 20.1971 32.3677C20.2887 32.531 20.3981 32.7693 20.4696 33.0696C20.5947 33.595 20.5974 33.9381 20.5025 34.0928C20.4456 34.1857 20.2831 34.2773 20.0338 34.3367C19.7845 34.396 19.6231 34.3816 19.5055 34.3303C19.3511 34.2348 19.1988 33.9274 19.0737 33.4019C19.0022 33.1017 18.9676 32.8456 19.0006 32.6526C19.0207 32.5156 19.0717 32.3977 19.1594 32.324C19.2283 32.2811 19.3469 32.2264 19.5214 32.1849ZM19.587 32.4601C19.4623 32.4898 19.3626 32.5135 19.3437 32.5445C19.2748 32.5873 19.2548 32.7243 19.2835 32.9554C19.3013 33.0305 19.3311 33.1556 19.3847 33.3808C19.4801 33.7811 19.5646 34.0254 19.6572 34.0826C19.719 34.1208 19.8247 34.1221 19.9991 34.0805C20.1736 34.039 20.2674 33.9902 20.3053 33.9283C20.3373 33.8414 20.3276 33.5793 20.2322 33.179C20.1786 32.9538 20.1488 32.8287 20.131 32.7536C20.0584 32.5594 19.9787 32.4461 19.917 32.408C19.8173 32.4317 19.7116 32.4304 19.587 32.4601Z" fill="#020202"/>
<path d="M21.5405 31.704C21.715 31.6625 21.8206 31.6638 21.9263 31.6651C22.0628 31.6854 22.1555 31.7427 22.2162 31.8869C22.3077 32.0501 22.4171 32.2885 22.4886 32.5887C22.6138 33.1142 22.6164 33.4572 22.5216 33.612C22.4647 33.7049 22.3021 33.7965 22.0528 33.8558C21.8036 33.9152 21.6421 33.9007 21.5245 33.8494C21.3701 33.754 21.2179 33.4465 21.0928 32.9211C21.0213 32.6209 20.9866 32.3647 21.0197 32.1718C21.0398 32.0348 21.0907 31.9169 21.1785 31.8431C21.2473 31.8003 21.366 31.7456 21.5405 31.704ZM21.606 31.9793C21.4814 32.009 21.3817 32.0327 21.3627 32.0637C21.2939 32.1065 21.2738 32.2435 21.3025 32.4746C21.3204 32.5496 21.3502 32.6747 21.4038 32.8999C21.4991 33.3002 21.5836 33.5445 21.6763 33.6018C21.738 33.6399 21.8437 33.6412 22.0182 33.5997C22.1927 33.5581 22.2864 33.5094 22.3244 33.4475C22.3563 33.3605 22.3466 33.0984 22.2513 32.6981C22.1977 32.4729 22.1679 32.3478 22.15 32.2728C22.0774 32.0785 21.9978 31.9653 21.936 31.9271C21.8114 31.9568 21.7306 31.9496 21.606 31.9793Z" fill="#020202"/>
<path d="M45.2458 26.0595C45.4203 26.018 45.5259 26.0193 45.6316 26.0205C45.7682 26.0409 45.8608 26.0981 45.9215 26.2423C46.013 26.4056 46.1225 26.6439 46.194 26.9442C46.3191 27.4696 46.3217 27.8127 46.2269 27.9675C46.17 28.0603 46.0074 28.1519 45.7582 28.2113C45.5089 28.2706 45.3474 28.2562 45.2298 28.2049C45.0754 28.1095 44.9232 27.802 44.7981 27.2766C44.7266 26.9763 44.6919 26.7202 44.725 26.5272C44.7451 26.3903 44.796 26.2724 44.8838 26.1986C44.9526 26.1558 45.0713 26.1011 45.2458 26.0595ZM45.3113 26.3347C45.1867 26.3644 45.087 26.3882 45.068 26.4191C44.9992 26.4619 44.9791 26.5989 45.0078 26.83C45.0257 26.9051 45.0555 27.0302 45.1091 27.2554C45.2044 27.6557 45.2889 27.9 45.3816 27.9572C45.4434 27.9954 45.549 27.9967 45.7235 27.9551C45.898 27.9136 45.9917 27.8648 46.0297 27.8029C46.0617 27.716 46.0519 27.4539 45.9566 27.0536C45.903 26.8284 45.8732 26.7033 45.8553 26.6282C45.7827 26.434 45.7031 26.3208 45.6413 26.2826C45.5167 26.3123 45.436 26.3051 45.3113 26.3347Z" fill="#020202"/>
<path d="M47.2648 25.5788C47.4393 25.5373 47.5699 25.5326 47.6506 25.5398C47.7872 25.5602 47.8798 25.6174 47.9405 25.7616C48.0321 25.9249 48.1415 26.1632 48.213 26.4635C48.3381 26.9889 48.3408 27.332 48.2459 27.4868C48.189 27.5796 48.0265 27.6712 47.7772 27.7306C47.5279 27.7899 47.3665 27.7755 47.2489 27.7242C47.0945 27.6288 46.9422 27.3213 46.8171 26.7959C46.7456 26.4956 46.711 26.2395 46.7441 26.0465C46.7641 25.9095 46.8151 25.7917 46.9029 25.7179C46.9717 25.6751 47.0904 25.6204 47.2648 25.5788ZM47.3304 25.854C47.2057 25.8837 47.106 25.9075 47.0871 25.9384C47.0182 25.9812 46.9982 26.1182 47.0269 26.3493C47.0447 26.4244 47.0745 26.5495 47.1282 26.7747C47.2235 27.175 47.308 27.4193 47.4006 27.4765C47.4624 27.5147 47.5681 27.516 47.7426 27.4744C47.917 27.4329 48.0108 27.3841 48.0487 27.3222C48.0807 27.2353 48.071 26.9732 47.9757 26.5729C47.922 26.3477 47.8922 26.2226 47.8744 26.1475C47.8018 25.9533 47.7221 25.8401 47.6604 25.8019C47.5357 25.8316 47.455 25.8244 47.3304 25.854Z" fill="#020202"/>
<path d="M49.2089 25.1158C49.3834 25.0742 49.4891 25.0755 49.5947 25.0768C49.7313 25.0972 49.8239 25.1544 49.8846 25.2986C49.9762 25.4619 50.0856 25.7002 50.1571 26.0005C50.2822 26.5259 50.2849 26.869 50.19 27.0238C50.1331 27.1166 49.9706 27.2082 49.7213 27.2676C49.472 27.3269 49.3106 27.3125 49.193 27.2612C49.0386 27.1657 48.8863 26.8583 48.7612 26.3328C48.6897 26.0326 48.6551 25.7765 48.6881 25.5835C48.7082 25.4465 48.7592 25.3286 48.8469 25.2549C48.9407 25.2061 49.0594 25.1514 49.2089 25.1158ZM49.2745 25.391C49.1498 25.4207 49.0501 25.4444 49.0312 25.4754C48.9623 25.5182 48.9423 25.6552 48.971 25.8863C48.9888 25.9614 49.0186 26.0865 49.0722 26.3117C49.1676 26.712 49.2521 26.9563 49.3447 27.0135C49.4065 27.0517 49.5122 27.053 49.6866 27.0114C49.8611 26.9699 49.9549 26.9211 49.9928 26.8592C50.0248 26.7723 50.0151 26.5102 49.9197 26.1099C49.8661 25.8847 49.8363 25.7596 49.8185 25.6845C49.7459 25.4903 49.6662 25.3771 49.6045 25.3389C49.5048 25.3626 49.3991 25.3613 49.2745 25.391Z" fill="#020202"/>
<path d="M51.228 24.6351C51.4025 24.5935 51.5081 24.5948 51.6138 24.5961C51.7503 24.6165 51.843 24.6737 51.9037 24.8179C51.9952 24.9812 52.1046 25.2195 52.1761 25.5198C52.3012 26.0452 52.3039 26.3883 52.2091 26.543C52.1522 26.6359 51.9896 26.7275 51.7403 26.7869C51.4911 26.8462 51.3296 26.8318 51.212 26.7805C51.0576 26.685 50.9054 26.3776 50.7803 25.8521C50.7088 25.5519 50.6741 25.2957 50.7072 25.1028C50.7272 24.9658 50.7782 24.8479 50.866 24.7742C50.9597 24.7254 51.0784 24.6707 51.228 24.6351ZM51.2935 24.9103C51.1689 24.94 51.0692 24.9637 51.0502 24.9947C50.9814 25.0375 50.9613 25.1745 50.99 25.4056C51.0079 25.4807 51.0377 25.6058 51.0913 25.831C51.1866 26.2313 51.2711 26.4756 51.3638 26.5328C51.4255 26.571 51.5312 26.5723 51.7057 26.5307C51.8802 26.4892 51.9739 26.4404 52.0119 26.3785C52.0438 26.2916 52.0341 26.0295 51.9388 25.6292C51.8852 25.404 51.8554 25.2789 51.8375 25.2038C51.7649 25.0096 51.6853 24.8963 51.6235 24.8582C51.5238 24.8819 51.4181 24.8806 51.2935 24.9103Z" fill="#020202"/>
<path d="M29.3176 29.8522C29.4921 29.8107 29.5977 29.812 29.7034 29.8133C29.8399 29.8336 29.9326 29.8909 29.9933 30.0351C30.0848 30.1983 30.1942 30.4367 30.2657 30.7369C30.3909 31.2624 30.3935 31.6054 30.2987 31.7602C30.2418 31.8531 30.0792 31.9447 29.8299 32.004C29.5807 32.0634 29.4192 32.0489 29.3016 31.9976C29.1472 31.9022 28.995 31.5947 28.8699 31.0693C28.7984 30.7691 28.7637 30.5129 28.7968 30.32C28.8169 30.183 28.8678 30.0651 28.9556 29.9913C29.0493 29.9426 29.168 29.8879 29.3176 29.8522ZM29.3831 30.1275C29.2585 30.1571 29.1588 30.1809 29.1398 30.2118C29.071 30.2547 29.0509 30.3916 29.0796 30.6228C29.0975 30.6978 29.1273 30.8229 29.1809 31.0481C29.2762 31.4484 29.3607 31.6927 29.4534 31.75C29.5151 31.7881 29.6208 31.7894 29.7953 31.7479C29.9698 31.7063 30.0635 31.6576 30.1015 31.5957C30.1334 31.5087 30.1237 31.2466 30.0284 30.8463C29.9748 30.6211 29.945 30.496 29.9271 30.421C29.8545 30.2267 29.7749 30.1135 29.7131 30.0753C29.6134 30.0991 29.5077 30.0978 29.3831 30.1275Z" fill="#020202"/>
<path d="M27.1767 30.7058L27.2471 31.112L27.3219 31.0942C27.5711 31.0349 27.7575 31.0434 27.9309 31.1078C28.1352 31.1914 28.2517 31.3487 28.3053 31.5739C28.3768 31.8742 28.2809 32.1349 28.0115 32.3313C27.8549 32.4479 27.6425 32.5513 27.4182 32.6048L27.3184 32.6285L27.2529 32.3533L27.4025 32.3177C27.6019 32.2702 27.7455 32.2096 27.8522 32.1048C27.9839 31.9941 28.023 31.8262 27.9813 31.6511C27.9455 31.5009 27.8718 31.4127 27.7542 31.3614C27.6426 31.3351 27.512 31.3398 27.3625 31.3754L27.0195 31.4835L26.837 30.4958L27.8839 30.2465L27.9494 30.5218L27.1767 30.7058Z" fill="#020202"/>
<path d="M41.609 27.2692L40.587 27.5125L40.5215 27.2373L41.8924 26.9109L41.8984 26.9359C41.9341 27.086 41.9331 27.192 41.907 27.304C41.894 27.36 41.8431 27.4778 41.7732 27.6267C41.6274 27.8994 41.5444 28.1042 41.5184 28.2161C41.4604 28.415 41.4582 28.6271 41.5118 28.8522L41.5893 29.1775L41.2902 29.2487L41.2127 28.9235C41.1174 28.5231 41.2025 28.1063 41.4312 27.6288L41.5012 27.4799C41.6079 27.3752 41.6209 27.3192 41.609 27.2692Z" fill="#020202"/>
<path d="M39.2633 27.484C39.4378 27.4425 39.5684 27.4378 39.7109 27.4832C39.8534 27.5286 39.958 27.6359 39.9937 27.786C40.0235 27.9111 40.0165 27.9921 39.9655 28.11C39.9276 28.1719 39.8707 28.2648 39.7639 28.3695C40.0988 28.4484 40.296 28.613 40.3616 28.8882C40.4092 29.0884 40.3702 29.2563 40.2694 29.3861C40.1686 29.5158 40.025 29.5765 39.8006 29.6299C39.6012 29.6774 39.4148 29.6689 39.2723 29.6235C39.0989 29.559 39.0133 29.4208 38.9657 29.2206C38.9001 28.9454 39.002 28.7096 39.2654 28.4882C38.9804 28.3975 38.839 28.2461 38.7973 28.0709C38.7615 27.9208 38.8065 27.7779 38.9133 27.6731C38.9512 27.6112 39.0889 27.5256 39.2633 27.484ZM39.7161 29.3856C39.8408 29.3559 39.9096 29.3131 39.9725 29.2452C40.0353 29.1774 40.0613 29.0654 40.0375 28.9654C40.0137 28.8653 39.94 28.7771 39.8473 28.7198C39.7856 28.6816 39.674 28.6553 39.5314 28.61C39.4247 28.7147 39.3369 28.7885 39.299 28.8504C39.2421 28.9433 39.2101 29.0302 39.2399 29.1553C39.2637 29.2554 39.3374 29.3436 39.4241 29.3758C39.4858 29.414 39.5915 29.4153 39.7161 29.3856ZM39.3289 27.7593C39.1045 27.8127 39.0227 27.9115 39.0585 28.0616C39.0882 28.1867 39.2177 28.2881 39.46 28.3097C39.6664 28.1812 39.7363 28.0324 39.7065 27.9073C39.6708 27.7572 39.5283 27.7118 39.3289 27.7593Z" fill="#020202"/>
<path d="M31.3366 29.3715C31.5111 29.3299 31.6417 29.3253 31.7842 29.3707C31.9267 29.4161 32.0312 29.5233 32.067 29.6735C32.0968 29.7986 32.0897 29.8796 32.0388 29.9975C32.0008 30.0594 31.9439 30.1522 31.8372 30.257C32.172 30.3359 32.3693 30.5004 32.4348 30.7757C32.4825 30.9758 32.4434 31.1437 32.3426 31.2735C32.2418 31.4033 32.0982 31.4639 31.8739 31.5173C31.6745 31.5648 31.4881 31.5563 31.3456 31.5109C31.1722 31.4465 31.0866 31.3082 31.0389 31.108C30.9734 30.8328 31.0753 30.597 31.3386 30.3757C31.0536 30.2849 30.9122 30.1335 30.8705 29.9584C30.8348 29.8082 30.8798 29.6653 30.9865 29.5606C31.0494 29.4927 31.187 29.4071 31.3366 29.3715ZM31.7894 31.273C31.914 31.2434 31.9828 31.2005 32.0457 31.1327C32.1086 31.0648 32.1346 30.9529 32.1108 30.8528C32.0869 30.7527 32.0132 30.6645 31.9206 30.6073C31.8588 30.5691 31.7472 30.5428 31.6047 30.4974C31.4979 30.6021 31.4101 30.6759 31.3722 30.7378C31.3153 30.8307 31.2833 30.9176 31.3131 31.0427C31.3369 31.1428 31.4106 31.231 31.4973 31.2633C31.584 31.2955 31.6897 31.2968 31.7894 31.273ZM31.4021 29.6467C31.1778 29.7001 31.096 29.7989 31.1317 29.9491C31.1615 30.0742 31.291 30.1755 31.5332 30.1972C31.7397 30.0687 31.8096 29.9198 31.7798 29.7947C31.769 29.6387 31.6265 29.5933 31.4021 29.6467Z" fill="#020202"/>
<path d="M28.493 9.79609C24.5795 10.7279 22.1515 14.6903 23.0869 18.6185C24.0222 22.5468 27.9754 24.9897 31.8889 24.0578C35.8024 23.126 38.2304 19.1636 37.295 15.2354C36.3596 11.3072 32.4064 8.86424 28.493 9.79609Z" fill="white"/>
<path d="M32.565 10.968C32.3502 12.4998 31.1944 13.0658 29.3997 13.4932C29.2003 13.5406 29.0258 13.5822 28.8264 13.6297C28.6519 13.6712 28.4774 13.7128 28.3278 13.7484C28.1783 13.784 28.0287 13.8196 27.8792 13.8552C27.9795 13.1703 28.283 12.675 28.7907 12.2633C29.505 11.7231 30.527 11.4797 31.4492 11.2601C31.8481 11.1652 32.222 11.0761 32.565 10.968Z" fill="#0B9032"/>
<path d="M33.2147 11.2628C32.8341 13.2042 31.0811 13.8067 29.5606 14.1688C29.2116 14.2518 28.9125 14.3231 28.6134 14.3943L28.578 16.0155C30.1599 13.9203 33.1585 14.8984 33.4682 17.4157C33.662 19.1145 32.7715 20.4635 31.5967 21.0605C30.3281 21.7062 28.7134 21.562 27.7127 20.3461C27.6022 20.2138 27.412 19.9682 27.3205 19.8049L28.6519 19.0913C28.6947 19.1604 28.7624 19.2236 28.8052 19.2928C30.1159 20.5935 31.8565 19.3858 31.6995 17.7311C31.5366 16.0513 29.0657 15.7408 28.4656 17.8666L27.0882 17.6129L27.0633 17.6188L27.0777 15.0244C27.0858 14.8373 27.0973 14.3323 27.0734 14.2322C27.2314 11.5771 29.438 10.9988 31.2077 10.5774C30.4134 10.4493 29.5491 10.47 28.7016 10.6718C25.2617 11.4909 23.1372 14.9579 23.9594 18.4108C24.7816 21.8636 28.2406 24.0012 31.6805 23.1821C35.1203 22.363 37.2448 18.896 36.4227 15.4431C35.9818 13.5916 34.785 12.1051 33.2147 11.2628Z" fill="#E52415"/>
</g>
<defs>
<filter id="filter0_d" x="0" y="0" width="60.9891" height="47.0252" filterUnits="userSpaceOnUse" color-interpolation-filters="sRGB">
<feFlood flood-opacity="0" result="BackgroundImageFix"/>
<feColorMatrix in="SourceAlpha" type="matrix" values="0 0 0 0 0 0 0 0 0 0 0 0 0 0 0 0 0 0 127 0"/>
<feOffset dx="-1" dy="1"/>
<feGaussianBlur stdDeviation="1"/>
<feColorMatrix type="matrix" values="0 0 0 0 0.407789 0 0 0 0 0.153002 0 0 0 0 0.000130266 0 0 0 0.75 0"/>
<feBlend mode="normal" in2="BackgroundImageFix" result="effect1_dropShadow"/>
<feBlend mode="normal" in="SourceGraphic" in2="effect1_dropShadow" result="shape"/>
</filter>
<clipPath id="clip0">
<rect width="50.9393" height="32.0987" fill="white" transform="translate(3 12.7994) rotate(-13.3935)"/>
</clipPath>
</defs>
</svg>
