<svg width="61" height="61" viewBox="0 0 61 61" fill="none" xmlns="http://www.w3.org/2000/svg">
<path fill-rule="evenodd" clip-rule="evenodd" d="M30.5 0C13.6764 0 0 13.6764 0 30.5C0 47.3236 13.6764 61 30.5 61C47.3106 61 61 47.3236 61 30.5C61 13.6764 47.3106 0 30.5 0Z" fill="white"/>
<path fill-rule="evenodd" clip-rule="evenodd" d="M45.8854 8.62549C43.5542 14.596 38.2572 15.8393 30.5901 15.8393C29.7612 15.8393 28.9453 15.8263 28.1682 15.8134C27.4041 15.8004 26.6918 15.7875 25.9794 15.7875C25.3578 15.7875 24.7232 15.8004 24.1015 15.8263C25.1765 13.1843 26.899 11.397 29.3338 10.3091C32.74 8.79385 37.1693 8.7809 41.0676 8.76795C42.7512 8.755 44.3831 8.74205 45.8854 8.62549Z" fill="#008F32"/>
<path fill-rule="evenodd" clip-rule="evenodd" d="M48.2692 10.5424C44.8242 18.0411 37.1571 18.7923 30.5779 18.7923C29.1403 18.7923 27.7545 18.7534 26.4724 18.7534L24.8146 25.229C33.2976 18.3131 44.5133 25.1643 43.3218 35.6029C42.5189 42.6354 37.5068 47.2331 32.1968 48.5541C26.4206 49.9916 20.0227 47.8418 17.1605 41.949C16.8626 41.3273 16.3316 40.084 16.1244 39.4105L22.2114 37.8435C22.315 38.1931 22.4964 38.5299 22.6906 38.8407C26.7702 45.4199 35.0331 42.1303 35.9656 35.305C36.911 28.3632 27.1847 24.6721 22.7424 32.7795L17.3418 30.4742L17.2511 30.4354L19.8543 19.9838C20.0097 19.2456 20.5537 17.1604 20.6443 16.8237C23.5842 5.99653 33.1163 5.82817 40.7445 5.80227C37.5845 4.4942 34.1265 3.75598 30.4872 3.75598C15.7229 3.75598 3.75601 15.7229 3.75601 30.4872C3.75601 45.2515 15.7229 57.2184 30.4872 57.2184C45.2516 57.2184 57.2184 45.2515 57.2184 30.4872C57.2184 22.5611 53.7605 15.4379 48.2692 10.5424Z" fill="#EB2316"/>
</svg>
