<svg width="235" height="69" viewBox="0 0 235 69" fill="none" xmlns="http://www.w3.org/2000/svg">
<path fill-rule="evenodd" clip-rule="evenodd" d="M0.869875 28.8928L0.579916 20.8324L1.87358 19.0801L1.44979 13.6287L3.05571 11.7207L4.03711 9.81264L10.3493 5.60722L12.7805 4.43905L16.8176 2.99831L36.4009 1.63544L71.9543 0.584086L78.7125 0.311512L81.1437 0.0389391L89.5525 0.311512L91.9837 0.0389391L97.649 0.116817L99.8795 0L128.496 0.272573L131.083 0.155756H152.161L176.25 0.739842L178.993 0.700903L181.826 0.623025L208.792 1.86907L219.075 3.3877L225.833 6.81433L230.338 11.6038L231.944 13.5119L233.171 18.9633L233.528 20.9881V23.1687L234.509 30.8008L235 38.0824L234.353 40.4187L234.866 42.7551L234.019 45.2082L234.933 52.4898L231.699 59.5378L229.758 60.9786L225.543 63.3149L219.699 65.4176L209.595 66.5858L179.975 66.6637L152.986 67.5203L131.418 67.6761L97.939 69L79.1809 68.8442L76.2813 68.5327L73.8501 68.8053L68.3409 68.5327L65.9097 68.1044L45.0997 67.9486L42.6685 67.5203L37.3377 68.0265L34.9065 67.8708L31.9846 67.2867L29.5534 66.5468L14.6987 66.0796L12.2675 65.3397L8.67644 65.8849L4.4609 61.7963L2.85497 60.044L0.713743 51.9058L0 46.649L0.223045 40.3798V38.0435L1.02601 34.2664L0.535308 30.9176L0.869875 28.8928Z" fill="#F6DF2D"/>
</svg>
