<svg width="155" height="29" viewBox="0 0 155 29" fill="none" xmlns="http://www.w3.org/2000/svg">
<path fill-rule="evenodd" clip-rule="evenodd" d="M0.573747 12.1433L0.382498 8.75564L1.23576 8.01919L0.956245 5.72799L2.01547 4.92607L2.66278 4.12415L6.82612 2.35666L8.42967 1.86569L11.0924 1.26016L24.0091 0.687359L47.4592 0.245485L51.9168 0.130926L53.5203 0.0163657L59.0665 0.130926L60.6701 0.0163657L64.4068 0.0490971L65.8779 0L84.7528 0.11456L86.4593 0.0654628H100.362L116.25 0.310948L118.06 0.294582L119.928 0.261851L137.714 0.785553L144.496 1.42381L148.954 2.864L151.925 4.87698L152.985 5.67889L153.794 7.97009L154.029 8.82111V9.73759L154.676 12.9453L155 16.0056L154.573 16.9876L154.912 17.9695L154.353 19.0006L154.956 22.0609L152.823 25.0231L151.543 25.6287L148.762 26.6106L144.908 27.4944L138.244 27.9853L118.707 28.0181L100.906 28.3781L86.68 28.4436L64.5981 29L52.2257 28.9345L50.3132 28.8036L48.7097 28.9182L45.0759 28.8036L43.4724 28.6236L29.7466 28.5581L28.143 28.3781L24.627 28.5909L23.0234 28.5254L21.0962 28.2799L19.4927 27.969L9.69486 27.7726L8.09131 27.4616L5.72276 27.6907L2.94229 25.9723L1.88307 25.2359L0.470767 21.8155L0 19.6061L0.147115 16.9712V15.9893L0.676727 14.4018L0.353075 12.9944L0.573747 12.1433Z" fill="#F6DF2D"/>
</svg>
