<svg width="368" height="92" viewBox="0 0 368 92" fill="none" xmlns="http://www.w3.org/2000/svg">
<path fill-rule="evenodd" clip-rule="evenodd" d="M1.36219 38.5237L0.908125 27.7765L2.93394 25.4402L2.27031 18.1716L4.78512 15.6275L6.32194 13.0835L16.2065 7.4763L20.0137 5.91874L26.3356 3.99774L57.0023 2.18059L112.677 0.778781L123.26 0.41535L127.068 0.0519187L140.235 0.41535L144.043 0.0519187L152.914 0.155756L156.407 0L201.219 0.363431L205.271 0.207675H238.278L276 0.986456L280.296 0.934537L284.732 0.8307L326.96 2.4921L343.061 4.51693L353.645 9.08578L360.7 15.4718L363.215 18.0158L365.136 25.2844L365.695 27.9842V30.8916L367.232 41.0677L368 50.7765L366.987 53.8917L367.79 57.0068L366.463 60.2777L367.895 69.9865L362.831 79.3838L359.792 81.3047L353.191 84.4199L344.039 87.2235L328.217 88.781L281.833 88.8849L239.57 90.0271L205.795 90.2348L153.368 92L123.994 91.7923L119.453 91.377L115.646 91.7404L107.019 91.377L103.212 90.8059L70.6241 90.5982L66.817 90.0271L58.4692 90.702L54.6621 90.4944L50.0866 89.7156L46.2794 88.7291L23.0175 88.1061L19.2103 87.1196L13.5869 87.8465L6.98557 82.395L4.47077 80.0587L1.11769 69.2077L0 62.1987L0.349279 53.8397V50.7246L1.60668 45.6885L0.838269 41.2235L1.36219 38.5237Z" fill="#F6DF2D"/>
</svg>
