<svg width="86" height="50" viewBox="0 0 86 50" fill="none" xmlns="http://www.w3.org/2000/svg">
<path d="M58.4107 8.68411C57.2883 9.39464 56.2504 11.3479 55.8393 12.1929C55.7576 12.3566 55.711 12.4531 55.711 12.4531C55.711 12.4531 55.6906 12.497 55.6643 12.5642C55.6585 12.5788 55.6527 12.5905 55.6527 12.5905C55.6527 12.5905 55.6527 12.5964 55.6498 12.6022C55.6119 12.7104 55.5681 12.8508 55.5798 12.9443C55.6177 13.2835 55.9151 13.6549 57.0142 12.9648C58.0696 12.2952 58.5856 11.3712 60.5098 9.96774C61.0434 9.573 61.1833 9.24551 61.192 8.9882C61.2212 8.16072 59.5506 7.96189 58.4107 8.68411Z" fill="#CD1722"/>
<path d="M54.029 15.5762C52.3817 14.4826 47.9123 12.0528 42.2564 13.2838C39.3497 13.9154 34.8803 15.854 31.4138 19.6493C31.4167 19.6551 31.3876 19.6785 31.3876 19.6785C31.3876 19.6785 30.5071 20.585 30.4167 21.123C30.3555 21.3891 30.5887 21.7253 30.9619 21.3832C31.2185 21.1054 31.6383 20.7078 32.2155 20.2458C33.0581 19.4973 33.5829 19.2107 34.5654 18.6259C43.3788 13.4008 47.6966 16.7312 51.0494 17.2282C51.4109 17.2692 52.2447 17.3247 52.8482 17.0996C53.44 16.8774 54.1806 16.4592 54.2534 16.2166C54.2972 16.0704 54.3263 15.7984 54.029 15.5762Z" fill="#CD1722"/>
<path d="M48.9677 10.3008C49.1718 10.5405 49.6733 10.8359 50.5945 9.79785C51.4254 8.86802 51.9415 8.00837 53.3147 6.17211C53.6295 5.70428 53.6383 5.37972 53.4692 5.17504C53.0902 4.52884 51.0202 4.7803 50.1368 5.76568C49.0056 7.03176 48.8657 9.97329 48.8773 9.99375C48.8832 10.1195 48.9123 10.2364 48.9677 10.3008Z" fill="#CD1722"/>
<path d="M32.7288 14.038C32.9037 14.2076 33.2098 14.3334 33.446 14.3158C33.7638 14.2924 34.2711 14.0585 34.1136 12.9708C33.9212 11.6521 33.6559 10.3392 32.8279 9.09066C31.9504 7.7661 29.895 9.27779 29.8658 10.4211C29.8629 10.5877 29.8658 10.7486 29.9387 10.8977C30.3206 11.6696 32.0437 13.3772 32.7288 14.038Z" fill="#CD1722"/>
<path d="M40.889 10.6551C40.9357 10.8539 41.1048 11.0031 41.3088 11.0147C41.6354 11.0323 42.1077 10.9475 42.3351 10.3715C42.3788 10.2224 42.3846 10.237 42.4517 9.86855C42.6062 9.00013 43.0639 7.18434 43.1193 5.59662C43.1776 4.00305 40.4633 4.73697 40.2418 5.91241C40.2214 6.02644 40.2097 6.16679 40.2097 6.32177C40.1456 7.44165 40.6878 9.81884 40.889 10.6551Z" fill="#CD1722"/>
<path d="M28.7695 18.0785C28.1194 17.5113 27.1777 16.5083 25.7812 15.5727C24.9503 15.02 24.1048 15.5434 23.7404 16.2159C23.4488 16.6721 23.4022 17.2481 23.8045 17.6662C24.4459 18.2422 26.58 18.9001 27.6063 19.1896C27.9503 19.2861 28.3468 19.3329 28.5509 19.3036C28.8716 19.2627 29.408 18.83 29.064 18.3738C29.0436 18.3504 28.9386 18.2276 28.7695 18.0785Z" fill="#CD1722"/>
<path d="M17.3965 25.0906C17.3731 25.0292 17.3469 24.9707 17.3207 24.9122C17.3119 24.8888 17.3061 24.8625 17.2973 24.8391C16.8192 23.6023 15.8979 23.307 14.7609 23.4444C13.5976 23.5847 12.4898 24.1842 11.4256 25.3947C11.172 25.6871 10.9212 26.0146 10.6822 26.3742C10.6443 26.4181 10.6064 26.4649 10.5685 26.5116C10.3177 26.8391 10.0903 27.1871 9.88626 27.5497C9.22445 28.4882 8.5364 29.3801 7.89792 30.4795L8.02037 29.9649L9.31774 24.9298C9.33232 24.8625 9.43436 24.4853 9.45768 24.3684C9.40521 24.3654 9.3469 24.3684 9.28567 24.3713V24.3684C8.688 24.342 7.45185 24.4532 6.99996 25.9122L4.20112 37.2748C4.17197 37.383 4.12532 37.5263 4.07868 37.652C4.07868 37.652 4.07868 37.652 4.08159 37.652L4.07868 37.6578C4.04952 37.7689 4.20112 37.9005 4.20112 37.9005C4.20112 37.9005 4.33815 37.9035 4.41395 37.8976C5.88334 37.7836 6.3469 36.8596 6.51599 36.3596L6.76089 35.3011C7.39063 33.6198 7.98538 32.6988 8.51016 31.7953C8.4606 32.1403 8.41978 32.4795 8.40521 32.804C8.38188 33.2923 8.3848 33.7134 8.41687 34.0701C8.43728 34.6403 8.53932 35.1637 8.73465 35.6169C8.79296 35.7923 8.86002 35.959 8.94456 36.114C9.50433 37.1637 10.4431 37.2836 11.3294 37.1754C12.3003 37.0584 13.551 36.6081 14.7988 35.1432C15.688 34.0935 16.7842 32.2397 17.4023 29.1842C17.6647 27.9268 17.8658 26.2923 17.3965 25.0906ZM15.1428 29.4298C14.9533 30.1812 14.3323 32.4678 13.3615 33.997C12.586 35.2046 11.8804 35.5204 11.4081 35.538C11.0145 35.5496 10.7551 35.3801 10.5976 35.0613C10.5539 34.9064 10.5218 34.7251 10.5072 34.5263C10.4723 34.0497 10.4781 33.1403 10.9679 31.2192C11.2303 30.19 11.9329 27.6578 13.032 26.1842C13.586 25.4473 14.1049 25.073 14.7055 25.0526C15.0787 25.0409 15.3556 25.1666 15.5306 25.5087C15.551 25.5789 15.5685 25.6549 15.586 25.7368C15.7755 26.8128 15.3177 28.7456 15.1428 29.4298Z" fill="#CD1722"/>
<path d="M25.5533 26.6464C25.4775 26.4446 25.3755 26.2868 25.2735 26.1523C24.9615 25.7487 24.5854 25.5762 24.0373 25.6435C23.3114 25.7312 22.5504 26.1318 21.8361 26.7575C21.4426 27.0967 21.084 27.4944 20.7574 27.9066C21.0606 27.24 21.5242 26.4183 22.1656 25.7984C22.8186 25.1581 23.53 24.8365 24.1743 24.5558L25.7662 23.8599C26.9265 23.1406 27.2939 21.6084 27.0373 21.0411C27.0373 21.0119 27.0373 21.0587 27.0373 21.0324C26.9819 21.047 26.9324 21.0675 26.8944 21.0821L23.6291 22.4037C22.3784 22.9125 20.7603 23.933 19.4455 26.509C18.7487 27.8686 18.2151 29.468 17.8391 31.0908C17.5184 32.4593 17.2735 34.161 17.874 35.1669C17.9411 35.278 18.0169 35.3657 18.0898 35.4505C18.6058 36.0558 19.1977 36.237 19.9032 36.1493C21.7895 35.9183 23.1102 34.4446 23.7807 33.5236C24.7283 32.1961 25.3347 30.5411 25.5854 29.1347C25.7312 28.3218 25.8099 27.2984 25.5533 26.6464ZM23.1335 29.7897C22.9673 30.816 22.5533 32.047 22.0694 32.8774C21.5796 33.74 20.8565 34.4359 20.3026 34.5061C20.1044 34.5324 19.9032 34.5002 19.7866 34.354C19.7458 34.3043 19.7312 34.237 19.7108 34.1698C19.5883 33.7955 19.6379 33.1084 19.7574 32.4651C19.9353 31.509 20.4192 30.0528 21.3988 28.8365C21.9207 28.199 22.3668 27.8891 22.7516 27.8394C22.9003 27.8189 23.0373 27.8248 23.1102 27.9066C23.1627 27.971 23.1772 28.0441 23.1977 28.1552C23.288 28.6552 23.2006 29.3715 23.1335 29.7897Z" fill="#CD1722"/>
<path d="M75.1777 25.2718C78.1164 24.8068 79.5129 23.0174 79.7607 21.0875C79.8832 20.1343 79.647 19.6314 79.3672 19.2922C78.9211 18.7513 78.2797 18.6782 77.7724 18.7396C76.9998 18.8332 76.2156 19.1226 75.3234 20.1168C74.3205 21.2308 73.4196 23.0086 73.1077 25.3975C72.9969 26.2308 72.8657 27.6168 73.5537 28.4501C74.0698 29.0759 74.924 29.4414 75.8307 29.2835C75.9182 29.2688 76.0086 29.2601 76.0931 29.2425C76.5567 29.1197 78.029 28.608 78.4984 27.07C78.5508 26.9004 78.6441 26.4998 78.5771 26.377C78.5217 26.3916 78.3526 26.4063 78.3526 26.4063C78.1252 26.5963 77.8278 26.7864 77.4342 26.9647C76.268 27.494 75.5742 27.456 75.2797 27.0875C74.8832 26.5905 75.1106 25.6957 75.1427 25.532C75.1543 25.4501 75.1631 25.3653 75.1777 25.2718ZM76.0494 21.9063C76.5975 20.5466 77.1485 20.2981 77.4925 20.2805C77.6062 20.2747 77.7141 20.2835 77.7695 20.3478C78.0027 20.6197 77.8949 21.1548 77.8657 21.3887C77.7287 22.453 77.2272 23.108 76.6091 23.5291C76.2039 23.801 75.7986 23.9384 75.4342 24.0086C75.58 23.3302 75.7986 22.532 76.0494 21.9063Z" fill="#CD1722"/>
<path d="M32.2884 33.374L34.0493 24.491C34.0522 24.4852 34.0522 24.4764 34.0522 24.4676C34.0551 24.4559 34.0581 24.4442 34.0581 24.4384C34.0901 24.3009 34.1105 24.2542 34.163 24.1957L33.9123 24.2278C33.9094 24.2278 33.9064 24.2278 33.9035 24.2308L33.6528 24.26C33.6441 24.26 33.6353 24.26 33.6236 24.26L32.9385 24.3448C32.0493 24.5378 31.7782 25.1314 31.7024 25.3799L31.6849 25.4705L31.682 25.4735H31.6849L31.5362 26.1928C31.2913 27.4004 30.4079 29.4647 29.7286 30.6255C29.4866 31.0319 28.7286 32.5524 28.2913 32.605C28.2505 32.6109 28.2184 32.605 28.1892 32.5992C28.1659 32.4471 28.1951 32.2366 28.2446 32.0202L29.6178 25.3419C29.6441 25.2132 29.7169 24.8477 29.7286 24.7659C29.6528 24.7775 29.5624 24.7892 29.4604 24.7951C29.4108 24.798 29.3642 24.8068 29.3175 24.8126C29.2884 24.8156 29.2592 24.8185 29.2301 24.8214C27.8423 24.9325 27.3234 25.6811 27.1688 26.2045L25.8073 33.0407C25.7257 33.4618 25.6557 34.0992 25.8102 34.5553C25.9589 35.0056 26.2884 35.3623 26.9852 35.2776C27.7607 35.184 28.3962 34.6723 29.0464 33.8711C29.6703 33.105 30.2184 32.0144 30.5887 31.2132L30.2942 32.6489C30.2476 32.9764 30.2825 33.5407 30.612 33.9588C30.854 34.2688 31.2009 34.5583 31.9997 34.4501C31.9997 34.4501 31.9997 34.4501 32.0027 34.4501C32.1222 34.4296 32.2126 34.4033 32.2271 34.3828C32.1134 34.26 32.2913 33.3711 32.2884 33.374Z" fill="#CD1722"/>
<path d="M47.3379 30.2163C47.335 30.2104 47.335 30.2075 47.335 30.2017C47.1017 30.3946 46.7985 30.5847 46.3991 30.766C45.2155 31.2981 44.5157 31.2601 44.2242 30.8888C43.8335 30.3888 44.0784 29.4882 44.1163 29.3215C44.1251 29.2367 44.1367 29.149 44.1542 29.0584C47.1222 28.5905 48.5682 26.7835 48.851 24.8391C48.991 23.88 48.7636 23.3742 48.4866 23.0291C48.0464 22.4853 47.3991 22.4122 46.886 22.4736C46.1047 22.5672 45.3087 22.8595 44.3933 23.8595C43.3612 24.9824 42.4195 26.7748 42.0609 29.1783C41.9356 30.0204 41.7956 31.4005 42.4545 32.2543C42.4808 32.2864 42.5974 32.4443 42.6382 32.4882C43.2417 33.1636 44.0609 33.1958 44.7373 33.0935C44.8277 33.0788 44.9152 33.0701 45.0026 33.0525C45.472 32.9268 46.9647 32.4122 47.4691 30.8654C47.5245 30.6987 47.6499 30.3157 47.6032 30.1783L47.3379 30.2163ZM45.0901 25.6695C45.6673 24.3011 46.2271 24.0496 46.577 24.0291C46.6936 24.0233 46.7985 24.0321 46.8569 24.0993C47.0872 24.3742 46.9327 24.9473 46.8977 25.1812C46.7373 26.2514 46.2592 26.8829 45.6294 27.304C45.2155 27.5759 44.8044 27.7163 44.437 27.7864C44.5915 27.0993 44.8277 26.2981 45.0901 25.6695Z" fill="#CD1722"/>
<path d="M55.3262 30.5496L56.8801 21.9794C56.8801 21.9706 56.883 21.9648 56.883 21.956C56.886 21.9443 56.886 21.9326 56.8889 21.9268C56.9851 21.5115 57.0171 21.4852 57.0667 21.4238L56.8072 21.4531C56.8072 21.4531 56.8072 21.4531 56.8072 21.4501L56.469 21.4911L56.1367 21.5291C56.1338 21.5291 56.1309 21.532 56.1279 21.532L55.851 21.5671C54.9676 21.7572 54.7081 22.3507 54.6352 22.5963L54.6177 22.687L54.4836 23.4034C54.2562 24.6051 53.4049 26.6577 52.746 27.8069C52.5099 28.2133 51.7781 29.7221 51.3466 29.7776C51.3058 29.7835 51.2737 29.7806 51.2446 29.7747C51.2183 29.6227 51.2445 29.4151 51.2912 29.1987L52.5653 22.5583C52.5915 22.4297 52.6556 22.07 52.6673 21.9911C52.6002 21.9999 52.5244 22.0086 52.437 22.0174V22.0145C52.3612 22.0262 52.2737 22.0349 52.1688 22.0437C50.7897 22.1548 50.3087 22.9384 50.1396 23.4209L48.8801 30.2221C48.8276 30.5115 48.7693 30.9063 48.8014 31.2718C48.8247 31.9004 49.0784 32.5086 50.0171 32.4589C50.7868 32.418 51.4749 31.8478 52.1134 31.0525C52.7198 30.2893 53.2533 29.2045 53.609 28.4063L53.3378 29.8361C53.2941 30.1607 53.3378 30.7221 53.6702 31.1402C53.9151 31.4472 54.265 31.7338 55.055 31.6285C55.055 31.6285 55.055 31.6285 55.058 31.6285C55.1746 31.608 55.265 31.5817 55.2795 31.5642C55.1629 31.4326 55.3291 30.5466 55.3262 30.5496Z" fill="#CD1722"/>
<path d="M42.2064 23.5117C42.2123 23.4737 42.2181 23.4357 42.221 23.4006L42.2473 23.2603L42.0169 23.2895V23.2836L39.0898 23.6374C37.5475 23.9445 36.912 24.9152 36.6496 25.8538L36.5038 26.3655C36.2443 27.4357 35.7371 29.2369 35.4484 30.0234C35.0898 31.0205 34.7312 31.6228 34.4805 31.9065C34.4776 31.9065 34.4776 31.9065 34.4747 31.9094C34.4368 31.962 34.3697 32.0293 34.2706 32.1141C34.2094 32.1696 34.151 32.2105 34.0986 32.2427C33.6671 32.5322 33.2852 32.5088 33.0578 32.4503C32.9994 32.6842 32.9353 33.038 32.979 33.3684C32.979 33.3684 33.0082 33.5293 33.0228 33.5819C33.1044 33.8684 33.3289 34.0848 33.3755 34.1375C33.6234 34.4182 34.358 34.6053 35.1306 34.1784C35.428 33.9942 35.5096 33.8889 35.6438 33.7515C36.2677 33.0994 36.6613 32.2603 36.9353 31.5877C37.2181 30.9065 37.8682 29.0702 38.5184 26.5234L38.6554 25.9708C38.6613 25.9562 38.6671 25.9386 38.6758 25.924C38.7691 25.617 39.0694 24.9503 39.912 24.8597C39.9003 24.9065 39.8916 24.9503 39.8799 24.9971L39.9295 24.769L38.463 31.8509C38.463 31.8509 38.393 32.1638 38.3814 32.31C38.3551 32.5936 38.4309 32.8304 38.6321 33.0877C38.8216 33.3304 39.1102 33.579 39.7662 33.5263C39.9324 33.5117 40.3959 33.4532 40.4222 33.4152C40.358 33.3451 40.3872 33.0234 40.4251 32.7603L42.2064 23.5117Z" fill="#CD1722"/>
<path d="M64.994 20.4652C64.991 20.4622 64.8657 20.4769 64.7666 20.4885L64.0931 20.5704C63.2039 20.7634 62.9502 21.3657 62.8861 21.6055L62.3613 24.5119L60.0639 24.7897L60.6587 21.5207C60.6878 21.3599 60.7403 21.0149 60.7403 21.0149C60.7403 21.0149 60.5392 21.0295 60.5304 21.0295C60.5217 21.0295 60.5158 21.0324 60.51 21.0324C60.4983 21.0324 60.4721 21.0324 60.4371 21.0383C60.4284 21.0383 60.4225 21.0383 60.4167 21.0383C58.4109 21.1991 58.3147 22.7897 58.3147 22.7897C58.3147 22.7897 58.3117 22.7868 58.3059 22.7839L56.7957 31.0675C56.7287 31.3511 56.6324 31.4593 56.6324 31.4593L57.8365 31.3102L57.8336 31.3073L57.8657 31.3043C58.6499 31.1055 59.0348 30.6698 59.1456 30.0119L59.6849 26.9593L61.9881 26.6786L61.338 30.2809C61.3088 30.4447 61.2301 30.7605 61.2301 30.7605C61.2301 30.7605 61.2068 30.8394 61.131 30.9038C61.201 30.8979 61.6033 30.8453 61.6908 30.8394C63.0902 30.7371 63.4429 30.1114 63.5829 29.6581L63.6499 29.278V29.2693H63.6529L65.2185 20.4388C65.2097 20.4418 65.0873 20.4535 64.994 20.4652Z" fill="#CD1722"/>
<path d="M51.393 20.4121C51.7837 21.1226 52.3901 21.225 52.6437 21.2396C52.737 21.2454 52.8624 21.2425 53.0081 21.2221C53.014 21.2221 53.1539 21.1987 53.2326 21.1899C53.3784 21.1723 53.565 21.1285 53.7953 21.0671C54.1306 20.9764 54.4659 20.8478 54.807 20.6811C55.1481 20.5145 55.46 20.3156 55.7487 20.0817C56.0373 19.8478 56.2909 19.5788 56.5096 19.2659C56.7283 18.956 56.8711 18.608 56.9236 18.2133C56.9294 18.1694 56.9323 18.0846 56.9323 17.9501C56.9323 17.8185 56.8857 17.7454 56.7982 17.725C56.7137 17.7045 56.5009 17.7338 56.253 17.9414C55.8682 18.2045 55.5329 18.4326 55.2385 18.6197C54.9411 18.8069 54.6146 18.994 54.2472 19.1899C53.8799 19.3858 53.5096 19.5408 53.1248 19.6577C53.0402 19.684 52.9323 19.7104 52.7953 19.7396C52.6612 19.7718 52.53 19.7776 52.4076 19.7659C52.2851 19.7542 52.1714 19.7104 52.0723 19.6402C51.9732 19.57 51.9119 19.453 51.8886 19.2864C51.8711 19.1636 51.8857 19.0028 51.9353 18.8098C51.9323 18.7835 51.9236 18.7513 51.9061 18.7104C51.8915 18.6723 51.8595 18.6636 51.8041 18.687C51.7487 18.7074 51.6262 18.8536 51.4455 19.1314C51.2618 19.4063 51.2122 19.7308 51.2822 20.0963C51.2997 20.1987 51.3376 20.3039 51.393 20.4121Z" fill="#CD1722"/>
<path d="M70.0437 19.7486C67.9475 19.8597 65.9766 22.0264 65.2653 25.6492C64.895 27.5264 65.1807 28.7018 65.7434 29.4036C66.1924 29.9592 66.7813 30.2545 67.5656 30.2135C69.7434 30.0937 71.7288 27.851 72.4052 24.3276C72.7667 22.4504 72.481 21.2749 71.9125 20.5673C71.4548 20.003 70.8513 19.7048 70.0437 19.7486ZM70.1312 24.1989C69.5131 28.0469 68.5539 28.7077 67.9562 28.7399C67.7813 28.7486 67.6268 28.7223 67.5364 28.6141C67.1253 28.117 67.3615 26.9007 67.4985 26.0761C68.1282 22.1931 69.0233 21.2399 69.7551 21.2018C69.9212 21.1931 70.0729 21.2165 70.1574 21.3217C70.5889 21.8393 70.2944 23.1872 70.1312 24.1989Z" fill="#CD1722"/>
<path fill-rule="evenodd" clip-rule="evenodd" d="M80.7054 16.8535C80.204 16.8535 79.7987 17.257 79.7987 17.7541C79.7987 18.2512 80.204 18.6547 80.7054 18.6547C81.2069 18.6547 81.6121 18.2512 81.6121 17.7541C81.6121 17.257 81.2069 16.8535 80.7054 16.8535ZM80.7054 18.4939C80.2943 18.4939 79.962 18.1605 79.962 17.7541C79.962 17.3447 80.2943 17.0143 80.7054 17.0143C81.1165 17.0143 81.4489 17.3447 81.4489 17.7541C81.4489 18.1635 81.1165 18.4939 80.7054 18.4939Z" fill="#CD1722"/>
<path fill-rule="evenodd" clip-rule="evenodd" d="M80.3729 18.2223V17.2896H80.7665C80.8627 17.2896 80.9356 17.3188 80.9823 17.3773C81.0172 17.4211 81.0318 17.4796 81.0318 17.5556C81.0318 17.6083 81.0231 17.658 80.9997 17.6989C80.9735 17.7486 80.9356 17.7779 80.886 17.7866V17.7954C80.9298 17.7983 80.9618 17.8159 80.9764 17.8422C80.9881 17.8627 80.991 17.8977 80.991 17.9445V17.9825V18.0205C80.991 18.0732 80.9939 18.1141 80.9997 18.1434C81.0056 18.1726 81.0172 18.1989 81.0318 18.2281H80.8365C80.8277 18.2135 80.8219 18.1989 80.8161 18.1814C80.8132 18.1667 80.8132 18.1463 80.8132 18.1258L80.8073 17.9913C80.8073 17.9533 80.7986 17.927 80.7811 17.9094C80.7636 17.8919 80.7344 17.886 80.6936 17.886H80.5683V18.2311H80.3729V18.2223ZM80.5683 17.4708V17.7077H80.714C80.749 17.7077 80.7723 17.7018 80.7869 17.6901C80.8132 17.6726 80.8248 17.6375 80.8248 17.5907C80.8248 17.5439 80.8161 17.5118 80.7957 17.4972C80.7782 17.4796 80.749 17.4708 80.7082 17.4708H80.5683Z" fill="#CD1722"/>
<path d="M14.6671 44.6667C14.5826 44.5907 14.3027 44.4591 14.2619 44.2719C14.1773 43.8977 14.4922 43.807 14.8071 43.7719C15.6146 43.6871 16.4222 43.6053 17.2269 43.5C17.5534 43.4591 17.8683 43.5029 17.877 43.8597C17.8799 44.0205 17.5767 44.3012 17.3785 44.3333C16.5447 44.4766 15.6963 44.5497 14.6671 44.6667Z" fill="#CD1722"/>
<path d="M70.6034 37.2281C70.9795 37.2047 71.3381 37.1463 71.3614 37.5965C71.3847 38.0234 71.0436 38.0527 70.7258 38.0878C69.9358 38.1696 69.1457 38.2486 68.3585 38.3451C68.032 38.386 67.7142 38.3334 67.7288 37.9679C67.7346 37.7983 68.0465 37.5381 68.2506 37.503C69.0524 37.3685 69.8629 37.31 70.6034 37.2281Z" fill="#CD1722"/>
<path d="M22.9099 41.9183C22.7933 41.8715 22.6738 41.8452 22.5455 41.8394C22.4201 41.8335 22.2831 41.8364 22.1344 41.854C21.9683 41.8744 21.805 41.9388 21.6446 42.0528C21.4843 42.1668 21.3414 42.3072 21.2102 42.4739C21.079 42.6435 20.977 42.8335 20.8983 43.0499C20.8196 43.2633 20.7787 43.4797 20.7729 43.6961C20.7671 43.9709 20.8312 44.1756 20.9624 44.3013C21.0965 44.43 21.2744 44.4797 21.4959 44.4534C21.6825 44.4329 21.8546 44.3861 22.012 44.316C22.1694 44.2458 22.3123 44.1727 22.4376 44.0908L22.6359 44.7487C22.4376 44.9008 22.2073 45.0353 21.9449 45.1493C21.6825 45.2633 21.4231 45.3364 21.1665 45.3657C20.872 45.4008 20.6242 45.392 20.4201 45.3394C20.2161 45.2867 20.0528 45.2049 19.9274 45.0879C19.8021 44.9739 19.7088 44.8364 19.6534 44.6756C19.5951 44.5148 19.5688 44.3423 19.5718 44.1581C19.5805 43.7049 19.665 43.2897 19.8196 42.9154C19.9741 42.5411 20.1752 42.2166 20.4231 41.9417C20.6709 41.6668 20.9508 41.4475 21.2627 41.278C21.5747 41.1084 21.8925 41.006 22.219 40.968C22.5076 40.9329 22.735 40.9329 22.9012 40.9622C23.0674 40.9914 23.219 41.0265 23.3531 41.0704L22.9099 41.9183Z" fill="#CD1722"/>
<path d="M29.5358 37.1404L26.4513 39.4064L27.0868 40.4825L28.2967 39.6638L27.3726 43.2398L25.9148 43.4094L25.5212 44.9708L30.1714 44.4328L30.565 42.8684L29.1451 43.0351L30.6845 37.0059L29.5358 37.1404Z" fill="#CD1722"/>
<path d="M37.125 38.6371C37.1338 38.2394 37.0784 37.8915 36.9589 37.6049C36.8364 37.3155 36.6644 37.0786 36.4457 36.9003C36.2271 36.7219 35.9676 36.602 35.6702 36.5406C35.3845 36.4821 35.0755 36.4734 34.7431 36.5114C34.3116 36.5611 33.9035 36.6722 33.5332 36.8359C33.16 37.0026 32.8306 37.219 32.5478 37.4792C32.2621 37.7424 32.0317 38.0552 31.8685 38.409C31.7023 38.7658 31.6119 39.1576 31.6032 39.5757C31.5944 39.9412 31.6498 40.2541 31.7693 40.5084C31.8889 40.7658 32.0492 40.9704 32.2416 41.1166C32.4341 41.2628 32.6527 41.3622 32.8976 41.412C33.1309 41.4587 33.3641 41.4704 33.5944 41.4441C33.9414 41.4032 34.2475 41.333 34.504 41.2336C34.504 41.2365 34.5011 41.2365 34.4982 41.2394C34.2941 41.488 34.0521 41.7219 33.7752 41.9353C33.4982 42.1517 33.1804 42.3476 32.8364 42.5231C32.4895 42.6956 32.1163 42.8389 31.7285 42.947L31.5565 42.9938L31.6207 44.409L31.8685 44.3652C32.2212 44.3038 32.6003 44.1927 32.9909 44.0377C33.3845 43.8798 33.7781 43.678 34.1571 43.4354C34.5361 43.1927 34.9064 42.9032 35.2591 42.5757C35.6119 42.2482 35.9268 41.8798 36.195 41.4792C36.4661 41.0786 36.6877 40.6342 36.8539 40.1634C37.023 39.6927 37.1163 39.1751 37.125 38.6371ZM35.3787 38.9237C35.3787 38.9763 35.367 39.0582 35.3466 39.1751C35.332 39.2628 35.3175 39.3359 35.3029 39.3944C35.1863 39.5026 35.0288 39.5991 34.8364 39.681C34.6148 39.7775 34.3728 39.8389 34.1192 39.8681C34.0142 39.8798 33.918 39.8769 33.8277 39.8623C33.7489 39.8476 33.6761 39.8213 33.6119 39.7745C33.5507 39.7307 33.504 39.6722 33.4691 39.5932C33.4312 39.5114 33.4137 39.3915 33.4166 39.2394C33.4224 39.0552 33.4574 38.8915 33.5244 38.7511C33.5915 38.6108 33.679 38.4909 33.7868 38.3944C33.9005 38.2921 34.0201 38.2161 34.16 38.1605C34.3029 38.102 34.4516 38.064 34.6061 38.0465C34.6673 38.0406 34.7227 38.0377 34.7723 38.0377C35.0726 38.0406 35.1658 38.1634 35.2008 38.2073C35.3233 38.3739 35.3845 38.6137 35.3787 38.9237Z" fill="#CD1722"/>
<path d="M40.452 35.8683L37.3703 38.1373L38.0059 39.2133L39.2129 38.3946L38.2887 41.9706L36.831 42.1402L36.4374 43.7016L41.0904 43.1607L41.484 41.5993L40.0613 41.763L41.6036 35.7367L40.452 35.8683Z" fill="#CD1722"/>
<path d="M48.1286 35.0938L43.6563 35.6142L43.2452 37.1785L45.2131 36.9476L43.563 38.737L43.286 39.7955L44.3793 39.6669C44.9536 39.5996 45.1694 39.6756 45.2481 39.7283C45.2918 39.7575 45.423 39.8423 45.4143 40.1873C45.4114 40.3131 45.3793 40.4446 45.321 40.5791C45.2656 40.7107 45.1752 40.8335 45.0557 40.9446C44.9303 41.0616 44.7729 41.1639 44.5834 41.2487C44.3968 41.3335 44.1665 41.3949 43.9041 41.4242C43.6417 41.4534 43.4143 41.4563 43.219 41.4329C43.0295 41.4095 42.872 41.3686 42.7466 41.3101L42.563 41.2253L41.6854 42.775L41.9157 42.8715C42.1227 42.9592 42.3968 43.009 42.7466 43.0236C42.8225 43.0265 42.9012 43.0294 42.977 43.0294C43.2335 43.0323 43.4901 43.0177 43.7408 42.9885C44.2889 42.9242 44.7816 42.8014 45.2073 42.6201C45.6359 42.4359 46.0032 42.2078 46.2977 41.9359C46.595 41.661 46.8254 41.3394 46.9799 40.9856C47.1344 40.6347 47.216 40.2546 47.2248 39.854C47.2306 39.5353 47.184 39.2633 47.0819 39.047C46.9799 38.8277 46.8458 38.6522 46.6825 38.5207C46.5251 38.392 46.3472 38.2984 46.1519 38.2458C46.0878 38.2283 46.0236 38.2136 45.9624 38.2019L47.8487 36.1756L48.1286 35.0938Z" fill="#CD1722"/>
<path d="M52.6295 41.2719C52.4313 41.4239 52.1922 41.5584 51.9182 41.6696C51.6441 41.7836 51.3788 41.8538 51.1193 41.883C50.8249 41.9181 50.577 41.9152 50.3759 41.8772C50.1747 41.8391 50.0114 41.7748 49.8861 41.6842C49.7607 41.5935 49.6703 41.4853 49.6149 41.3596C49.5595 41.2339 49.5333 41.0994 49.5362 40.959C49.5421 40.7046 49.6062 40.4883 49.7287 40.3099C49.8511 40.1315 50.0027 39.9795 50.1835 39.8508C50.3642 39.7251 50.5566 39.6169 50.7636 39.5292C50.9706 39.4415 51.1631 39.3567 51.3409 39.2748C51.5187 39.1929 51.6703 39.1111 51.7899 39.0263C51.9123 38.9415 51.9735 38.8391 51.9765 38.7193C51.9794 38.5935 51.9415 38.5087 51.8628 38.4678C51.784 38.4239 51.6558 38.4152 51.4779 38.4356C51.201 38.4678 50.9765 38.5175 50.7957 38.5848C50.6179 38.652 50.4633 38.7222 50.3321 38.7953L50.2097 38.0555C50.3088 37.9941 50.4254 37.9415 50.5566 37.8888C50.6878 37.8391 50.8278 37.7924 50.9765 37.7485C51.1252 37.7046 51.2738 37.6666 51.4225 37.6345C51.5741 37.6023 51.7112 37.5818 51.8424 37.5643C52.0873 37.535 52.2942 37.535 52.4604 37.5643C52.6266 37.5935 52.7636 37.6432 52.8657 37.7163C52.9677 37.7894 53.0406 37.8801 53.0843 37.9883C53.1281 38.0965 53.1485 38.2163 53.1456 38.345C53.1397 38.6111 53.0756 38.8333 52.9531 39.0117C52.8307 39.19 52.6791 39.345 52.4983 39.4736C52.3176 39.6023 52.1252 39.7105 51.9182 39.8011C51.7112 39.8888 51.5187 39.9766 51.3409 40.0584C51.1631 40.1432 51.0114 40.231 50.889 40.3274C50.7666 40.4239 50.7053 40.538 50.7024 40.6666C50.6995 40.8099 50.7549 40.9093 50.8686 40.9736C50.9852 41.035 51.131 41.0584 51.3088 41.038C51.5158 41.0146 51.717 40.9649 51.9123 40.8918C52.1077 40.8187 52.2651 40.7397 52.3905 40.652L52.6295 41.2719Z" fill="#CD1722"/>
<path d="M53.2767 40.2072C53.2855 39.7803 53.3642 39.3826 53.51 39.0142C53.6557 38.6458 53.8452 38.3241 54.0814 38.0493C54.3175 37.7744 54.5887 37.5493 54.8948 37.3768C55.2009 37.2043 55.5187 37.099 55.8511 37.0581C56.1455 37.023 56.3934 37.0347 56.5916 37.0932C56.7928 37.1516 56.9531 37.2394 57.0756 37.3592C57.198 37.4791 57.2855 37.6224 57.335 37.792C57.3875 37.9587 57.4108 38.1341 57.405 38.3183C57.3963 38.7394 57.3205 39.1341 57.1776 39.4996C57.0347 39.8651 56.8482 40.1838 56.6149 40.4587C56.3846 40.7335 56.1164 40.9587 55.8132 41.1312C55.51 41.3037 55.1922 41.4089 54.8627 41.447C54.5741 41.482 54.3292 41.4674 54.131 41.406C53.9298 41.3446 53.7665 41.2569 53.6382 41.1341C53.51 41.0142 53.4167 40.8739 53.3584 40.7101C53.3001 40.5493 53.2709 40.3797 53.2767 40.2072ZM54.4458 39.9382C54.4342 40.4294 54.6295 40.6516 55.026 40.6049C55.1747 40.5873 55.3175 40.5142 55.4604 40.3826C55.6033 40.2511 55.7315 40.0873 55.8482 39.8885C55.9619 39.6896 56.0552 39.4703 56.1251 39.2277C56.1951 38.985 56.233 38.7481 56.2388 38.5142C56.2447 38.2949 56.2038 38.1341 56.1251 38.0259C56.0464 37.9177 55.8919 37.8768 55.6645 37.9031C55.5187 37.9206 55.3729 37.9908 55.2301 38.1165C55.0872 38.2423 54.9589 38.4002 54.8452 38.5902C54.7315 38.7803 54.6382 38.9937 54.5654 39.2306C54.4896 39.4674 54.4517 39.7043 54.4458 39.9382Z" fill="#CD1722"/>
<path d="M60.0434 36.6844C60.2096 36.6639 60.3408 36.6639 60.437 36.6785C60.5332 36.6961 60.6207 36.7195 60.6936 36.7546L60.7402 36.7487C60.7111 36.3686 60.5449 36.1054 60.2388 35.9534C59.9326 35.8014 59.5391 35.7575 59.0551 35.8189L59.2563 35.044C60.163 34.9183 60.8306 35.0353 61.2563 35.3978C61.6819 35.7604 61.886 36.3335 61.8685 37.1113C61.8539 37.7078 61.7723 38.2312 61.6236 38.6902C61.472 39.1493 61.2737 39.5382 61.0289 39.8569C60.784 40.1756 60.507 40.4271 60.195 40.6084C59.886 40.7897 59.5653 40.9008 59.2358 40.9388C58.679 41.0031 58.2708 40.9037 58.0084 40.6405C57.749 40.3774 57.6236 39.9973 57.6353 39.506C57.644 39.1639 57.7052 38.8335 57.8277 38.5148C57.9472 38.1961 58.1134 37.9066 58.3291 37.6464C58.542 37.3861 58.7956 37.1698 59.0842 37.0002C59.3729 36.8306 59.6936 36.7253 60.0434 36.6844ZM60.6936 37.6318C60.609 37.5762 60.5186 37.5382 60.4254 37.5177C60.3321 37.4973 60.2096 37.4943 60.0638 37.5119C59.9035 37.5294 59.7519 37.5879 59.6032 37.6844C59.4545 37.7809 59.3204 37.9095 59.2038 38.0733C59.0872 38.237 58.9939 38.43 58.921 38.6522C58.8481 38.8745 58.8102 39.123 58.8044 39.3949C58.7985 39.6025 58.8423 39.778 58.9356 39.9212C59.0259 40.0645 59.1746 40.1259 59.3758 40.1025C59.6032 40.0762 59.7956 39.9797 59.9589 39.8101C60.1221 39.6405 60.2563 39.4388 60.3612 39.1961C60.4662 38.9563 60.5478 38.6961 60.6032 38.4183C60.6557 38.1376 60.6877 37.8745 60.6936 37.6318Z" fill="#CD1722"/>
<path d="M65.7523 38.4504C65.6969 38.6609 65.659 38.8744 65.6328 39.0878C65.6066 39.3013 65.592 39.503 65.5862 39.6931C65.5862 39.7691 65.5862 39.8393 65.5862 39.9065C65.5862 39.9738 65.5891 40.0381 65.5949 40.0966L64.7582 40.1931L64.6445 39.5089L64.6066 39.5118C64.5366 39.6171 64.4462 39.7223 64.3383 39.8305C64.2276 39.9387 64.108 40.0381 63.9797 40.1317C63.8485 40.2252 63.7115 40.3042 63.5657 40.3656C63.42 40.427 63.2713 40.4679 63.1197 40.4855C62.7144 40.5323 62.42 40.4504 62.2305 40.2399C62.0439 40.0293 61.9535 39.7311 61.9622 39.3393C61.971 38.9445 62.0351 38.5586 62.1576 38.1843C62.28 37.81 62.4608 37.4679 62.7086 37.1668C62.9535 36.8627 63.2596 36.6083 63.627 36.4007C63.9943 36.1931 64.4287 36.0615 64.9331 36.003C65.1488 35.9767 65.3821 35.9679 65.6357 35.9738C65.8894 35.9796 66.1343 35.9972 66.3733 36.0293L65.7523 38.4504ZM63.5716 39.6112C63.6824 39.5995 63.7873 39.5673 63.8835 39.5147C63.9827 39.4621 64.073 39.3978 64.1576 39.3247C64.2421 39.2486 64.315 39.1697 64.3821 39.0878C64.4491 39.003 64.5074 38.927 64.557 38.8539L65.0585 36.8978C64.9914 36.8802 64.9156 36.8685 64.8252 36.8627C64.7378 36.8597 64.6503 36.8627 64.5628 36.8714C64.3413 36.8978 64.1459 36.9796 63.971 37.1141C63.7961 37.2516 63.6474 37.4211 63.5249 37.6229C63.4025 37.8247 63.3063 38.0469 63.2392 38.2925C63.1722 38.5352 63.1372 38.7779 63.1313 39.0176C63.1284 39.1931 63.1576 39.3393 63.2188 39.4592C63.2859 39.579 63.3996 39.6287 63.5716 39.6112Z" fill="#CD1722"/>
</svg>
